<svg width="600" height="600" viewBox="0 0 600 600" fill="none" xmlns="http://www.w3.org/2000/svg">
<path d="M204.888 83.772H71.496V317.148H204.888V83.772Z" fill="#FAFAFA"/>
<path d="M113.04 319.392C113.04 319.392 98.4 214.392 90.78 202.86C90.78 202.86 134.472 170.04 135.816 81.1201H69.504V319.392H113.04Z" fill="#EBEBEB"/>
<path d="M163.308 318.924C163.308 318.924 177.924 213.924 185.58 202.392C185.58 202.392 141.876 169.584 140.544 80.6521H206.856V318.924H163.308Z" fill="#EBEBEB"/>
<path d="M208.392 74.8921H59.124V324.864H214.572V74.8921H208.392ZM98.304 204.768V264.204H71.496V204.768H98.304ZM71.496 200.46V138.936H98.304V200.46H71.496ZM139.116 200.46V138.936H172.644V200.46H139.116ZM172.644 204.768V264.204H139.116V204.768H172.644ZM99.444 200.46V138.936H134.772V200.46H99.444ZM134.772 204.768V264.204H99.492V204.768H134.772ZM99.492 137.88V83.7721H134.82V137.88H99.492ZM134.82 265.272V317.172H99.492V265.272H134.82ZM139.116 265.272H172.644V317.172H139.116V265.272ZM139.116 137.88V83.7721H172.644V137.88H139.116ZM173.844 204.768H202.212V264.204H173.844V204.768ZM173.844 200.46V138.936H202.212V200.46H173.844ZM202.212 137.88H173.844V83.7721H202.212V137.88ZM98.304 83.7721V137.88H71.496V83.7721H98.304ZM71.496 265.272H98.304V317.172H71.496V265.272ZM173.844 317.172V265.272H202.212V317.172H173.844Z" fill="#29B3D1"/>
<path d="M542.952 83.772H409.56V317.148H542.952V83.772Z" fill="#FAFAFA"/>
<path d="M451.116 319.392C451.116 319.392 436.5 214.392 428.844 202.86C428.844 202.86 472.548 170.04 473.88 81.1201H407.568V319.392H451.116Z" fill="#EBEBEB"/>
<path d="M501.384 318.924C501.384 318.924 515.988 213.924 523.644 202.392C523.644 202.392 479.952 169.584 478.608 80.6521H544.92V318.924H501.384Z" fill="#EBEBEB"/>
<path d="M546.468 74.8921H397.2V324.864H552.648V74.8921H546.468ZM436.38 204.768V264.204H409.56V204.768H436.38ZM409.56 200.46V138.936H436.38V200.46H409.56ZM477.18 200.46V138.936H510.78V200.46H477.18ZM510.78 204.768V264.204H477.18V204.768H510.78ZM437.58 200.46V138.936H472.896V200.46H437.58ZM472.896 204.768V264.204H437.568V204.768H472.896ZM437.568 137.88V83.7721H472.884V137.88H437.568ZM472.884 265.272V317.172H437.568V265.272H472.884ZM477.18 265.272H510.78V317.172H477.18V265.272ZM477.18 137.88V83.7721H510.78V137.88H477.18ZM511.908 204.768H540.276V264.204H511.908V204.768ZM511.908 200.46V138.936H540.276V200.46H511.908ZM540.276 137.88H511.908V83.7721H540.276V137.88ZM436.38 83.7721V137.88H409.56V83.7721H436.38ZM409.56 265.272H436.38V317.172H409.56V265.272ZM511.908 317.172V265.272H540.276V317.172H511.908Z" fill="#29B3D1"/>
<path d="M283.068 140.1H250.632V181.044H283.068V140.1Z" fill="#EBEBEB"/>
<path d="M269.304 180.12H264.804V181.212H269.304V180.12Z" fill="#29B3D1"/>
<path d="M267.888 154.188L261.912 155.064L259.692 160.68L263.436 165.408L269.4 164.532L271.632 158.928L267.888 154.188Z" fill="#29B3D1"/>
<path d="M270.684 157.812L264.708 158.688L262.476 164.304L266.22 169.032L272.196 168.168L274.428 162.552L270.684 157.812Z" fill="#FAFAFA"/>
<path d="M269.94 139.536H265.44V140.472H269.94V139.536Z" fill="#29B3D1"/>
<path d="M361.776 85.4402H307.62V153.804H361.776V85.4402Z" fill="#EBEBEB"/>
<path d="M338.796 152.28H331.284V154.104H338.796V152.28Z" fill="#29B3D1"/>
<path d="M336.432 108.984L326.448 110.436L322.728 119.808L328.98 127.716L338.952 126.264L342.672 116.892L336.432 108.984Z" fill="#29B3D1"/>
<path d="M341.088 115.032L331.116 116.496L327.384 125.868L333.648 133.776L343.62 132.312L347.34 122.952L341.088 115.032Z" fill="#FAFAFA"/>
<path d="M339.852 84.5161H332.34V86.0761H339.852V84.5161Z" fill="#29B3D1"/>
<path d="M271.032 370.536C263.688 371.736 260.412 380.736 261.048 388.152C261.684 395.568 264.744 402.804 263.928 410.196C262.884 419.592 255.792 427.524 254.964 436.932C253.992 448.032 261.84 457.872 264.18 468.768C265.32 474.06 265.164 479.664 267.132 484.716C268.811 489.018 271.93 492.603 275.957 494.862C279.984 497.12 284.671 497.911 289.216 497.1C293.762 496.288 297.885 493.925 300.882 490.413C303.88 486.9 305.565 482.457 305.652 477.84C305.808 469.32 300.552 461.292 301.188 452.796C301.656 446.508 305.34 440.556 304.56 434.304C303.612 426.876 296.724 421.596 294.3 414.504C291.876 407.412 294.204 399.6 293.364 392.148C291.852 378.78 284.448 369.456 271.032 370.548" fill="#FF7B31"/>
<path d="M271.032 370.536C263.688 371.736 260.412 380.736 261.048 388.152C261.684 395.568 264.744 402.804 263.928 410.196C262.884 419.592 255.792 427.524 254.964 436.932C253.992 448.032 261.84 457.872 264.18 468.768C265.32 474.06 265.164 479.664 267.132 484.716C268.811 489.018 271.93 492.603 275.957 494.862C279.984 497.12 284.671 497.911 289.216 497.1C293.762 496.288 297.885 493.925 300.882 490.413C303.88 486.9 305.565 482.457 305.652 477.84C305.808 469.32 300.552 461.292 301.188 452.796C301.656 446.508 305.34 440.556 304.56 434.304C303.612 426.876 296.724 421.596 294.3 414.504C291.876 407.412 294.204 399.6 293.364 392.148C291.852 378.78 284.448 369.456 271.032 370.548" fill="url(#paint0_linear)" fill-opacity="0.6"/>
<path d="M233.532 435.252C232.332 447.636 237.756 462.204 244.128 472.896C250.581 483.658 260.295 492.086 271.86 496.956C273.144 497.496 274.764 497.952 275.856 497.076C276.241 496.648 276.53 496.144 276.704 495.595C276.878 495.047 276.933 494.467 276.864 493.896C276.949 480.751 272.773 467.932 264.962 457.36C257.15 446.787 246.123 439.031 233.532 435.252Z" fill="#FF7B31"/>
<path d="M233.532 435.252C232.332 447.636 237.756 462.204 244.128 472.896C250.581 483.658 260.295 492.086 271.86 496.956C273.144 497.496 274.764 497.952 275.856 497.076C276.241 496.648 276.53 496.144 276.704 495.595C276.878 495.047 276.933 494.467 276.864 493.896C276.949 480.751 272.773 467.932 264.962 457.36C257.15 446.787 246.123 439.031 233.532 435.252Z" fill="url(#paint1_linear)" fill-opacity="0.6"/>
<path d="M287.484 522.852C287.337 522.64 287.216 522.41 287.124 522.168C286.896 521.628 286.608 520.968 286.248 520.14C285.504 518.364 284.388 515.82 282.972 512.7C279.277 504.561 275.172 496.615 270.672 488.892C266.155 481.18 261.249 473.702 255.972 466.488C253.944 463.728 252.264 461.508 251.088 459.984L249.756 458.22C249.588 458.028 249.446 457.814 249.336 457.584C249.336 457.584 249.54 457.752 249.864 458.136L251.304 459.816C252.504 461.28 254.28 463.416 256.368 466.2C261.777 473.343 266.758 480.8 271.284 488.532C275.8 496.287 279.855 504.301 283.428 512.532C284.784 515.688 285.828 518.268 286.5 520.068C286.812 520.908 287.064 521.604 287.256 522.144C287.358 522.371 287.435 522.608 287.484 522.852Z" fill="#81430A"/>
<path d="M279.504 404.796C279.583 405.192 279.631 405.593 279.648 405.996C279.708 406.836 279.792 407.976 279.888 409.404C280.08 412.44 280.356 416.7 280.704 421.956C281.364 432.552 282.312 447.156 283.44 463.344C284.568 479.532 285.696 494.136 286.524 504.72C286.92 509.964 287.256 514.236 287.484 517.26C287.58 518.688 287.652 519.828 287.712 520.668C287.744 521.067 287.744 521.469 287.712 521.868C287.622 521.473 287.562 521.072 287.532 520.668C287.448 519.84 287.328 518.7 287.172 517.272C286.884 514.248 286.488 509.988 285.972 504.756C285.024 494.172 283.824 479.556 282.684 463.38C281.544 447.204 280.68 432.576 280.14 421.968C279.9 416.712 279.696 412.44 279.552 409.404C279.552 407.976 279.468 406.836 279.444 405.996C279.432 405.595 279.452 405.194 279.504 404.796Z" fill="#81430A"/>
<path d="M268.116 505.2H299.136V528C299.136 531.95 297.567 535.738 294.774 538.53C291.981 541.323 288.194 542.892 284.244 542.892C280.432 542.891 276.765 541.429 273.999 538.806C271.233 536.183 269.579 532.599 269.376 528.792L268.116 505.2Z" fill="#29B3D1"/>
<path d="M568.656 542.482C568.656 542.222 452.096 542 308.328 542C164.56 542 48 542.222 48 542.482C48 542.742 164.537 542.964 308.328 542.964C452.119 542.964 568.656 542.742 568.656 542.482Z" fill="#545C60"/>
<path d="M399.024 289.704L394.224 288.708C389.94 287.424 387.516 286.872 386.52 285.468C385.2 283.584 387.72 282.504 387.72 282.504C387.72 282.504 384.768 280.788 385.452 278.904C385.62 278.53 385.902 278.22 386.258 278.017C386.614 277.814 387.025 277.73 387.432 277.776C387.432 277.776 384.864 276.132 384.54 274.86C384.096 273.132 386.232 272.676 386.232 272.676C382.896 269.58 383.7 267.324 384.624 267.276C385.548 267.228 388.224 269.16 388.224 269.16C390.624 270.36 397.008 273.804 395.22 269.532C393.432 265.26 393.66 261.312 394.464 260.28C394.677 260.06 394.953 259.913 395.254 259.859C395.555 259.805 395.865 259.848 396.14 259.981C396.416 260.114 396.642 260.331 396.787 260.6C396.932 260.869 396.989 261.177 396.948 261.48C397.055 263.04 397.374 264.578 397.896 266.052C398.276 267.249 398.856 268.373 399.612 269.376C400.5 270.576 401.292 271.5 402.012 272.292L405.48 277.26L399.024 289.704Z" fill="#FFBE9D"/>
<path d="M380.544 538.476L384.672 529.764L401.04 537.396L395.136 550.2L394.092 549.792C389.46 547.932 370.668 540.036 368.076 537.708C365.184 535.116 380.544 538.476 380.544 538.476Z" fill="#29B3D1"/>
<g opacity="0.3">
<path opacity="0.3" d="M389.256 547.296C390.145 546.03 391.469 545.137 392.976 544.788C394.458 544.419 396.024 544.63 397.356 545.376L395.22 549.948L389.256 547.296Z" fill="white"/>
</g>
<g opacity="0.3">
<path opacity="0.3" d="M372.924 537.072C372.924 537.072 367.404 536.208 367.632 537.3C367.86 538.392 386.556 547.08 395.136 550.2L395.28 549.816L373.392 539.856C373.392 539.856 373.86 537.6 372.924 537.072Z" fill="white"/>
</g>
<path d="M395.532 549.924L395.244 549.828L394.416 549.504L391.38 548.244C388.824 547.164 385.308 545.628 381.48 543.84C377.652 542.052 374.196 540.372 371.724 539.112L368.808 537.6L368.028 537.18L367.752 537.024C367.853 537.05 367.95 537.09 368.04 537.144L368.844 537.528L371.796 538.98C374.28 540.18 377.736 541.86 381.564 543.648C385.392 545.436 388.896 546.984 391.44 548.1L394.44 549.42L395.256 549.78L395.532 549.924Z" fill="#263238"/>
<path d="M373.284 540.108C373.376 539.557 373.408 538.998 373.38 538.44C373.281 537.884 373.12 537.34 372.9 536.82C373.284 537.268 373.525 537.82 373.594 538.405C373.662 538.991 373.554 539.584 373.284 540.108Z" fill="#263238"/>
<path d="M379.2 539.916C379.061 539.644 378.983 539.345 378.972 539.04C378.9 538.748 378.9 538.444 378.972 538.152C378.972 538.152 379.128 538.524 379.188 539.016C379.267 539.31 379.271 539.619 379.2 539.916Z" fill="#263238"/>
<path d="M380.904 539.832C380.844 539.832 380.664 539.556 380.496 539.172C380.328 538.788 380.244 538.464 380.304 538.44C380.364 538.416 380.544 538.704 380.7 539.088C380.831 539.314 380.902 539.57 380.904 539.832Z" fill="#263238"/>
<path d="M382.452 538.668C382.452 538.728 382.032 538.596 381.552 538.38C381.249 538.279 380.971 538.115 380.736 537.9C380.736 537.84 381.168 537.972 381.636 538.188C381.939 538.289 382.217 538.452 382.452 538.668Z" fill="#263238"/>
<path d="M383.256 537.72C382.883 537.776 382.503 537.717 382.164 537.552C381.807 537.453 381.489 537.248 381.252 536.964C381.595 537.06 381.929 537.188 382.248 537.348C382.594 537.443 382.931 537.567 383.256 537.72Z" fill="#263238"/>
<path d="M379.356 538.224C378.983 538.12 378.63 537.953 378.312 537.732C377.952 537.51 377.614 537.252 377.304 536.964C377.116 536.795 376.947 536.606 376.8 536.4C376.709 536.271 376.671 536.112 376.692 535.956C376.708 535.869 376.749 535.79 376.812 535.727C376.874 535.665 376.954 535.623 377.04 535.608C377.357 535.605 377.671 535.672 377.959 535.803C378.247 535.935 378.502 536.129 378.707 536.37C378.912 536.612 379.062 536.896 379.145 537.201C379.228 537.507 379.243 537.828 379.188 538.14C379.174 538.246 379.137 538.349 379.08 538.44C379.119 538.063 379.099 537.682 379.02 537.312C378.908 536.928 378.692 536.584 378.396 536.316C378.224 536.15 378.021 536.02 377.799 535.934C377.576 535.847 377.339 535.806 377.1 535.812C376.872 535.812 376.848 536.088 376.98 536.292C377.12 536.485 377.281 536.662 377.46 536.82C377.756 537.103 378.073 537.364 378.408 537.6C378.972 538.008 379.368 538.188 379.356 538.224Z" fill="#263238"/>
<path d="M379.056 538.152C379.036 537.869 379.117 537.589 379.284 537.36C379.445 537.103 379.663 536.885 379.92 536.724C380.084 536.613 380.272 536.543 380.469 536.522C380.666 536.501 380.865 536.529 381.048 536.604C381.142 536.678 381.205 536.785 381.223 536.903C381.24 537.021 381.212 537.142 381.144 537.24C381.044 537.397 380.908 537.528 380.748 537.624C380.504 537.795 380.237 537.932 379.956 538.032C379.704 538.145 379.428 538.194 379.152 538.176C379.152 538.176 379.452 538.08 379.896 537.888C380.157 537.775 380.403 537.63 380.628 537.456C380.88 537.3 381.168 536.952 380.928 536.784C380.688 536.616 380.28 536.784 380.028 536.904C379.785 537.039 379.573 537.223 379.404 537.444C379.274 537.673 379.158 537.909 379.056 538.152Z" fill="#263238"/>
<path d="M397.284 545.292C397.284 545.292 396.84 545.028 396.084 544.776C395.069 544.441 393.981 544.391 392.94 544.632C391.905 544.899 390.961 545.438 390.204 546.192C389.628 546.78 389.388 547.236 389.352 547.224C389.381 547.103 389.434 546.988 389.508 546.888C389.673 546.598 389.87 546.329 390.096 546.084C390.842 545.263 391.816 544.683 392.892 544.416C393.969 544.162 395.098 544.237 396.132 544.632C396.442 544.744 396.74 544.889 397.02 545.064C397.2 545.196 397.296 545.28 397.284 545.292Z" fill="#263238"/>
<path d="M398.76 537.696C398.361 538.864 397.888 540.007 397.344 541.116C396.865 542.262 396.32 543.38 395.712 544.464C396.124 543.294 396.601 542.148 397.14 541.032C397.617 539.89 398.158 538.776 398.76 537.696Z" fill="#263238"/>
<path d="M387.936 544.8C387.072 544.608 386.234 544.314 385.44 543.924C384.622 543.583 383.848 543.144 383.136 542.616C383.136 542.556 384.204 543.12 385.536 543.72C386.868 544.32 387.96 544.692 387.936 544.8Z" fill="#263238"/>
<path d="M391.2 546.24C391.2 546.24 391.008 546.42 390.78 546.612C390.552 546.804 390.396 546.996 390.348 546.972C390.3 546.948 390.348 546.672 390.636 546.444C390.924 546.216 391.2 546.18 391.2 546.24Z" fill="#263238"/>
<path d="M393.06 545.292C393.06 545.292 392.892 545.472 392.652 545.568C392.412 545.664 392.184 545.688 392.16 545.628C392.136 545.568 392.328 545.448 392.568 545.364C392.808 545.28 393.036 545.232 393.06 545.292Z" fill="#263238"/>
<path d="M395.112 545.412C395.112 545.412 394.86 545.352 394.572 545.328C394.284 545.304 394.068 545.328 394.044 545.328C394.02 545.328 394.26 545.112 394.596 545.148C394.932 545.184 395.148 545.364 395.112 545.412Z" fill="#263238"/>
<path d="M396.492 545.664C396.492 545.664 396.36 545.76 396.192 545.748C396.024 545.736 395.904 545.676 395.916 545.616C395.928 545.556 396.048 545.52 396.216 545.532C396.384 545.544 396.492 545.604 396.492 545.664Z" fill="#263238"/>
<path d="M518.604 543.24L514.524 534.504L530.832 526.8L536.94 539.508L535.956 540.06C531.576 542.46 513.516 551.88 510.072 552.396C506.232 552.936 518.604 543.24 518.604 543.24Z" fill="#29B3D1"/>
<g opacity="0.3">
<path opacity="0.3" d="M530.964 542.148C530.545 540.658 530.699 539.066 531.396 537.684C532.064 536.317 533.22 535.251 534.636 534.696L536.808 539.244L530.964 542.148Z" fill="white"/>
</g>
<g opacity="0.3">
<path opacity="0.3" d="M512.676 548.22C512.676 548.22 508.488 551.928 509.472 552.444C510.456 552.96 529.068 544.044 536.94 539.472L536.736 539.124L515.136 549.636C515.136 549.636 513.6 547.812 512.676 548.22Z" fill="white"/>
</g>
<path d="M536.988 538.992L536.724 539.148L535.944 539.58L533.04 541.116C530.58 542.4 527.16 544.128 523.332 545.916C519.504 547.704 516.024 549.3 513.48 550.404L510.456 551.7L509.628 552.036L509.34 552.132L509.616 551.988L510.42 551.616L513.42 550.272C515.94 549.132 519.42 547.536 523.248 545.712C527.076 543.888 530.448 542.196 532.968 540.912L535.896 539.436L536.7 539.04C536.794 539.013 536.891 538.997 536.988 538.992Z" fill="#263238"/>
<path d="M515.244 549.888C514.889 549.445 514.487 549.042 514.044 548.688C513.553 548.413 513.034 548.191 512.496 548.028C513.088 548.019 513.668 548.187 514.164 548.509C514.66 548.832 515.049 549.295 515.28 549.84L515.244 549.888Z" fill="#263238"/>
<path d="M518.892 545.16C518.892 545.16 518.496 545.04 518.076 544.776C517.656 544.512 517.344 544.26 517.38 544.212C517.416 544.164 517.776 544.332 518.196 544.596C518.616 544.86 518.916 545.112 518.892 545.16Z" fill="#263238"/>
<path d="M519.876 543.828C519.876 543.888 519.516 543.828 519.12 543.72C518.724 543.612 518.412 543.456 518.424 543.396C518.682 543.373 518.942 543.415 519.18 543.516C519.6 543.6 519.888 543.768 519.876 543.828Z" fill="#263238"/>
<path d="M519.984 541.896C519.984 541.956 519.648 542.184 519.18 542.412C518.712 542.64 518.316 542.784 518.28 542.724C518.508 542.497 518.782 542.321 519.084 542.208C519.6 541.98 519.948 541.836 519.984 541.896Z" fill="#263238"/>
<path d="M519.744 540.672C519.744 540.672 519.468 541.104 518.928 541.404C518.619 541.613 518.257 541.729 517.884 541.74C518.509 541.393 519.129 541.037 519.744 540.672Z" fill="#263238"/>
<path d="M517.656 543.996C517.342 544.223 516.988 544.39 516.612 544.488C516.223 544.623 515.821 544.72 515.412 544.776C515.157 544.807 514.899 544.807 514.644 544.776C514.566 544.772 514.489 544.751 514.419 544.716C514.349 544.681 514.287 544.632 514.236 544.572C514.189 544.499 514.164 544.413 514.164 544.326C514.164 544.239 514.189 544.153 514.236 544.08C514.545 543.694 514.978 543.426 515.461 543.323C515.945 543.22 516.449 543.289 516.888 543.516C517.145 543.65 517.374 543.834 517.56 544.056C517.631 544.132 517.684 544.222 517.716 544.32C517.456 544.05 517.152 543.827 516.816 543.66C516.441 543.486 516.023 543.432 515.616 543.504C515.381 543.531 515.154 543.604 514.948 543.719C514.742 543.835 514.561 543.99 514.416 544.176C514.308 544.38 514.416 544.548 514.704 544.572C514.94 544.596 515.177 544.596 515.412 544.572C515.818 544.53 516.219 544.453 516.612 544.344C517.2 544.152 517.644 543.972 517.656 543.996Z" fill="#263238"/>
<path d="M517.416 544.176C517.416 544.176 517.116 544.008 516.948 543.504C516.85 543.215 516.821 542.906 516.864 542.604C516.882 542.407 516.948 542.217 517.057 542.051C517.166 541.886 517.314 541.75 517.488 541.656C517.606 541.63 517.729 541.651 517.831 541.713C517.934 541.776 518.009 541.876 518.04 541.992C518.08 542.174 518.08 542.362 518.04 542.544C518.012 542.84 517.943 543.13 517.836 543.408C517.668 543.888 517.464 544.14 517.44 544.116C517.416 544.092 517.56 543.828 517.692 543.36C517.77 543.09 517.819 542.812 517.836 542.532C517.836 542.232 517.776 541.788 517.5 541.872C517.224 541.956 517.08 542.364 517.02 542.64C516.959 542.912 516.959 543.195 517.02 543.468C517.123 543.719 517.256 543.957 517.416 544.176Z" fill="#263238"/>
<path d="M534.528 534.684C534.528 534.684 534.048 534.864 533.328 535.308C532.431 535.861 531.708 536.656 531.24 537.6C530.78 538.563 530.593 539.634 530.7 540.696C530.784 541.524 530.976 542.004 530.94 542.016C530.871 541.913 530.818 541.799 530.784 541.68C530.668 541.37 530.588 541.048 530.544 540.72C530.387 539.623 530.558 538.504 531.036 537.504C531.519 536.496 532.297 535.658 533.268 535.104C533.556 534.935 533.862 534.798 534.18 534.696C534.295 534.673 534.412 534.669 534.528 534.684Z" fill="#263238"/>
<path d="M529.62 528.708C530.256 529.767 530.833 530.861 531.348 531.984C531.926 533.081 532.439 534.211 532.884 535.368C532.246 534.306 531.669 533.208 531.156 532.08C530.571 530.991 530.058 529.864 529.62 528.708Z" fill="#263238"/>
<path d="M528.156 541.536C527.463 542.088 526.7 542.548 525.888 542.904C525.109 543.328 524.278 543.646 523.416 543.852C523.416 543.852 524.484 543.348 525.816 542.712C527.148 542.076 528.12 541.488 528.156 541.536Z" fill="#263238"/>
<path d="M531.348 540C531.348 540 531.348 540.276 531.348 540.564C531.348 540.852 531.408 541.104 531.348 541.128C531.288 541.152 531.132 540.912 531.132 540.576C531.132 540.24 531.288 540 531.348 540Z" fill="#263238"/>
<path d="M531.84 537.948C531.9 537.948 531.84 538.188 531.78 538.44C531.72 538.692 531.576 538.872 531.528 538.86C531.48 538.848 531.528 538.62 531.528 538.368C531.528 538.116 531.78 537.924 531.84 537.948Z" fill="#263238"/>
<path d="M533.232 536.4C533.232 536.46 533.028 536.568 532.836 536.76C532.644 536.952 532.524 537.168 532.464 537.156C532.404 537.144 532.464 536.844 532.68 536.604C532.896 536.364 533.232 536.4 533.232 536.4Z" fill="#263238"/>
<path d="M534.312 535.536C534.312 535.536 534.312 535.704 534.192 535.824C534.072 535.944 533.952 535.992 533.904 535.956C533.856 535.92 533.904 535.788 534.024 535.668C534.144 535.548 534.264 535.488 534.312 535.536Z" fill="#263238"/>
<path d="M537.672 531.096L511.272 543.372L463.8 458.856C457.62 436.56 451.656 358.056 451.656 358.056L486 360.672C486 360.672 491.292 417.072 499.584 446.064L537.672 531.096Z" fill="#263238"/>
<path d="M507.048 535.104C507.048 535.104 507.384 534.852 508.044 534.504C508.704 534.156 509.676 533.664 510.876 533.076C513.276 531.876 516.624 530.304 520.332 528.576C524.04 526.848 527.4 525.324 529.848 524.256C531.048 523.716 532.08 523.284 532.764 523.056C533.113 522.878 533.484 522.749 533.868 522.672C533.566 522.919 533.231 523.121 532.872 523.272C532.2 523.62 531.24 524.112 530.04 524.7C527.64 525.9 524.292 527.472 520.596 529.2C516.9 530.928 513.528 532.44 511.068 533.52C509.868 534.06 508.848 534.492 508.152 534.72C507.804 534.899 507.432 535.028 507.048 535.104Z" fill="#455A64"/>
<path d="M501.6 326.46C502.248 326.46 509.268 347.256 502.512 361.044C501.828 362.424 496.512 370.02 496.512 370.02C477.816 392.076 458.88 434.82 453.6 446.088C442.8 469.14 402.768 544.968 402.768 544.968L377.088 530.268L414.636 433.728L448.716 346.608L501.6 326.46Z" fill="#263238"/>
<path d="M455.304 415.656C455.304 415.656 453.492 424.428 452.556 423.924C449.88 422.472 431.484 415.62 431.484 415.62L436.452 410.112L455.304 415.656Z" fill="#455A64"/>
<path d="M449.88 422.472C449.88 422.472 446.436 436.62 442.008 435.852C437.58 435.084 428.328 430.428 428.328 430.428L433.908 416.472L449.88 422.472Z" fill="#455A64"/>
<path d="M452.556 423.924L432.024 415.716L433.008 418.728L449.268 424.68L452.556 423.924Z" fill="#263238"/>
<path d="M488.196 381.12C488.109 381.311 487.996 381.488 487.86 381.648L486.804 383.076C485.892 384.276 484.596 386.148 483.096 388.464C480.084 393.096 476.292 399.72 472.416 407.208C468.54 414.696 465.216 421.608 462.876 426.576L460.056 432.492L459.276 434.088C459.194 434.279 459.089 434.461 458.964 434.628C459.002 434.424 459.067 434.227 459.156 434.04L459.84 432.396C460.44 430.968 461.34 428.916 462.468 426.396C464.748 421.356 467.964 414.396 471.864 406.92C475.112 400.491 478.718 394.249 482.664 388.224C484.224 385.932 485.568 384.132 486.552 382.932C487.008 382.38 487.392 381.936 487.752 381.576C487.88 381.406 488.029 381.252 488.196 381.12Z" fill="#455A64"/>
<path d="M379.044 525.768C379.116 525.624 385.176 528.504 392.58 532.212C399.984 535.92 405.912 539.064 405.78 539.22C405.648 539.376 399.648 536.484 392.244 532.776C384.84 529.068 378.972 525.924 379.044 525.768Z" fill="#455A64"/>
<path d="M409.56 276.756C408.167 279.899 406.588 282.956 404.832 285.912C403.258 288.971 401.495 291.929 399.552 294.768C400.947 291.622 402.526 288.561 404.28 285.6C405.863 282.55 407.626 279.596 409.56 276.756Z" fill="#263238"/>
<path d="M458.076 240.24C459.48 240.24 461.148 250.44 462.564 268.764C464.172 289.548 464.028 310.524 458.28 323.712C457.749 325.12 456.946 326.41 455.917 327.507C454.887 328.605 453.651 329.489 452.28 330.108C437.4 336.252 396.348 292.236 396.348 292.236L406.452 274.512L435.36 297.852C435.36 297.852 438.24 274.236 437.688 263.352C437.244 255.096 445.488 240.336 458.076 240.24Z" fill="#455A64"/>
<path d="M470.868 240.444C470.868 240.444 495.972 244.116 502.464 253.98C508.956 263.844 505.668 350.844 505.668 350.844L441.132 354.66C441.132 354.66 446.34 243.924 449.532 242.664C457.548 239.52 469.908 240.132 470.868 240.444Z" fill="#455A64"/>
<path d="M367.765 223.333C367.576 220.607 368.07 217.878 369.199 215.405C369.699 214.346 369.962 213.187 369.97 212.01V209H332.202C330.665 209 329.191 209.628 328.104 210.745C327.018 211.863 326.407 213.378 326.407 214.959V253.633H323.853C322.673 253.622 321.511 253.334 320.456 252.791C318.089 251.619 315.473 251.078 312.849 251.218C310.225 251.358 307.678 252.175 305.441 253.593C303.205 255.011 301.351 256.985 300.051 259.333C298.751 261.68 298.047 264.327 298.002 267.028C297.958 269.729 298.575 272.399 299.797 274.79C301.019 277.182 302.806 279.219 304.994 280.714C307.183 282.209 309.702 283.114 312.319 283.346C314.937 283.577 317.569 283.128 319.974 282.039C320.969 281.573 322.049 281.328 323.142 281.32H326.455V319.029C326.454 319.813 326.602 320.589 326.893 321.313C327.183 322.037 327.61 322.696 328.148 323.25C328.687 323.805 329.326 324.245 330.03 324.545C330.734 324.845 331.488 325 332.25 325H434.277C435.53 325 436.731 324.488 437.617 323.578C438.502 322.667 439 321.432 439 320.144V213.856C439.002 213.218 438.88 212.586 438.644 211.996C438.407 211.406 438.059 210.87 437.62 210.419C437.181 209.967 436.66 209.61 436.087 209.366C435.513 209.123 434.898 208.998 434.277 209H397.413V213.299C397.409 214.293 397.598 215.278 397.967 216.197C398.83 218.358 399.225 220.687 399.125 223.02C399.026 225.354 398.433 227.638 397.389 229.713C396.346 231.788 394.875 233.604 393.08 235.036C391.286 236.468 389.209 237.482 386.996 238.006C384.782 238.531 382.483 238.554 380.26 238.074C378.037 237.593 375.942 236.622 374.12 235.226C372.299 233.83 370.794 232.043 369.711 229.989C368.629 227.935 367.993 225.664 367.849 223.333H367.765Z" fill="#0FAD58"/>
<path d="M445.512 258.948C445.55 259.186 445.57 259.427 445.572 259.668C445.572 260.22 445.572 260.868 445.572 261.744C445.572 263.628 445.572 266.22 445.668 269.376C445.668 275.82 445.776 284.724 445.572 294.576C445.368 304.428 444.828 313.32 444.168 319.776C443.832 322.992 443.508 325.572 443.244 327.36C443.112 328.2 443.004 328.872 442.908 329.412C442.891 329.654 442.838 329.893 442.752 330.12C442.736 329.88 442.736 329.64 442.752 329.4C442.812 328.86 442.872 328.2 442.968 327.336C443.148 325.536 443.412 322.944 443.688 319.74C444.24 313.32 444.732 304.44 444.888 294.612C445.044 284.784 445.08 275.892 445.164 269.412C445.164 266.256 445.248 263.664 445.272 261.78C445.272 260.94 445.272 260.244 445.332 259.704C445.358 259.445 445.418 259.191 445.512 258.948Z" fill="#263238"/>
<path d="M483.9 199.428C482.868 205.98 482.928 211.728 486.132 216C486.827 216.822 487.469 217.687 488.052 218.592C488.341 219.047 488.534 219.557 488.618 220.089C488.703 220.622 488.678 221.166 488.544 221.688C488.395 222.151 488.126 222.566 487.764 222.891C487.401 223.215 486.959 223.437 486.482 223.534C486.005 223.631 485.511 223.598 485.051 223.44C484.591 223.283 484.181 223.005 483.864 222.636C483.968 223.377 483.849 224.133 483.522 224.806C483.195 225.479 482.675 226.04 482.028 226.416C481.697 226.568 481.336 226.643 480.972 226.635C480.608 226.627 480.251 226.536 479.927 226.37C479.604 226.203 479.322 225.966 479.104 225.674C478.886 225.383 478.737 225.046 478.668 224.688C478.668 224.688 479.52 228.012 475.704 227.496L478.392 204.696L483.9 199.428Z" fill="#263238"/>
<path d="M466.8 249.828C465.311 249.828 463.839 249.515 462.479 248.909C461.12 248.303 459.902 247.418 458.907 246.311C457.911 245.205 457.159 243.901 456.699 242.485C456.24 241.069 456.084 239.572 456.24 238.092C456.588 234.684 456.9 231.912 456.9 231.912C456.9 231.912 448.5 230.604 448.392 222.204C448.284 213.804 449.748 194.52 449.748 194.52C454.523 192.47 459.759 191.732 464.914 192.382C470.07 193.032 474.959 195.046 479.076 198.216L480.276 199.164L477.36 239.964C477.169 242.637 475.975 245.139 474.016 246.969C472.058 248.798 469.48 249.82 466.8 249.828Z" fill="#FFBE9D"/>
<path d="M451.908 209.688C452.081 209.527 452.203 209.319 452.258 209.09C452.313 208.86 452.299 208.619 452.218 208.398C452.137 208.176 451.993 207.983 451.803 207.843C451.613 207.703 451.385 207.622 451.15 207.611C450.914 207.599 450.68 207.657 450.477 207.778C450.274 207.899 450.112 208.077 450.009 208.289C449.907 208.502 449.87 208.74 449.902 208.974C449.935 209.208 450.036 209.427 450.192 209.604C450.298 209.724 450.427 209.821 450.571 209.891C450.716 209.96 450.872 210 451.032 210.008C451.192 210.016 451.352 209.991 451.502 209.936C451.653 209.881 451.791 209.797 451.908 209.688Z" fill="#263238"/>
<path d="M449.58 207.036C449.712 207.18 450.54 206.544 451.692 206.544C452.844 206.544 453.696 207.132 453.816 206.988C453.936 206.844 453.756 206.664 453.384 206.376C452.893 206.02 452.298 205.835 451.692 205.848C451.084 205.848 450.491 206.041 450 206.4C449.64 206.712 449.52 206.976 449.58 207.036Z" fill="#263238"/>
<path d="M462.912 208.8C462.774 208.881 462.654 208.989 462.559 209.118C462.463 209.246 462.395 209.393 462.357 209.548C462.319 209.703 462.312 209.865 462.337 210.023C462.363 210.181 462.419 210.332 462.504 210.468C462.585 210.607 462.694 210.729 462.823 210.825C462.953 210.922 463.1 210.991 463.257 211.029C463.414 211.067 463.577 211.073 463.736 211.047C463.896 211.021 464.048 210.962 464.184 210.876C464.322 210.794 464.443 210.684 464.538 210.554C464.633 210.424 464.702 210.277 464.738 210.12C464.775 209.963 464.78 209.801 464.753 209.642C464.726 209.483 464.667 209.331 464.58 209.196C464.498 209.059 464.389 208.94 464.26 208.846C464.131 208.752 463.985 208.684 463.829 208.647C463.674 208.611 463.513 208.605 463.355 208.631C463.198 208.657 463.047 208.715 462.912 208.8Z" fill="#263238"/>
<path d="M462.144 208.056C462.276 208.2 463.104 207.564 464.256 207.564C465.408 207.564 466.26 208.152 466.38 208.008C466.5 207.864 466.308 207.684 465.948 207.396C465.453 207.039 464.855 206.853 464.244 206.868C463.636 206.869 463.045 207.071 462.564 207.444C462.204 207.732 462.084 207.996 462.144 208.056Z" fill="#263238"/>
<path d="M457.512 217.596C456.913 217.367 456.281 217.234 455.64 217.2C455.34 217.2 455.1 217.104 455.076 216.936C455.063 216.633 455.138 216.333 455.292 216.072L456.204 213.672C457.075 211.686 457.739 209.615 458.184 207.492C457.121 209.4 456.253 211.41 455.592 213.492C455.292 214.308 455.004 215.088 454.728 215.892C454.527 216.279 454.467 216.725 454.56 217.152C454.602 217.267 454.671 217.37 454.761 217.454C454.85 217.537 454.959 217.598 455.076 217.632C455.245 217.675 455.418 217.7 455.592 217.704C456.234 217.778 456.883 217.742 457.512 217.596Z" fill="#263238"/>
<path d="M461.268 218.88C462.468 218.16 457.944 220.644 455.592 220.524C455.984 221.131 456.569 221.587 457.254 221.818C457.938 222.049 458.681 222.042 459.36 221.796C461.88 220.872 461.268 218.88 461.268 218.88Z" fill="white"/>
<path d="M456.828 231.792C460.705 231.864 464.516 230.778 467.772 228.672C467.772 228.672 465.18 234.672 456.804 233.964L456.828 231.792Z" fill="#EB996E"/>
<path d="M480.276 207.3C480.456 207.24 486.54 206.82 485.532 213.9C484.524 220.98 477.708 217.62 477.72 217.416C477.732 217.212 480.276 207.3 480.276 207.3Z" fill="#FFBE9D"/>
<path d="M480.24 215.244C480.24 215.244 480.348 215.352 480.552 215.472C480.686 215.557 480.836 215.615 480.992 215.641C481.149 215.668 481.309 215.664 481.464 215.628C481.963 215.402 482.393 215.047 482.709 214.6C483.025 214.153 483.217 213.63 483.264 213.084C483.377 212.482 483.348 211.861 483.18 211.272C483.144 211.042 483.054 210.823 482.916 210.635C482.778 210.447 482.597 210.295 482.388 210.192C482.251 210.132 482.097 210.123 481.953 210.167C481.81 210.211 481.688 210.305 481.608 210.432C481.488 210.612 481.512 210.756 481.464 210.768C481.416 210.78 481.332 210.624 481.464 210.348C481.525 210.173 481.649 210.028 481.812 209.94C481.918 209.878 482.035 209.838 482.157 209.824C482.279 209.809 482.403 209.82 482.52 209.856C482.801 209.967 483.049 210.149 483.238 210.385C483.428 210.62 483.552 210.901 483.6 211.2C483.819 211.853 483.868 212.551 483.744 213.228C483.691 213.864 483.451 214.471 483.054 214.97C482.657 215.47 482.12 215.841 481.512 216.036C481.314 216.063 481.112 216.046 480.921 215.986C480.73 215.925 480.555 215.824 480.408 215.688C480.228 215.412 480.216 215.256 480.24 215.244Z" fill="#EB996E"/>
<path d="M447.492 193.716C447.616 193.003 448.015 192.367 448.603 191.945C449.191 191.523 449.921 191.349 450.636 191.46C450.153 191.418 449.686 191.266 449.272 191.015C448.857 190.764 448.506 190.421 448.245 190.012C447.984 189.604 447.821 189.141 447.769 188.659C447.716 188.177 447.775 187.689 447.941 187.234C448.107 186.778 448.376 186.367 448.726 186.033C449.077 185.698 449.5 185.449 449.963 185.304C450.425 185.159 450.915 185.122 451.394 185.197C451.873 185.272 452.328 185.457 452.724 185.736C451.778 184.848 451.026 183.773 450.516 182.58C450.259 181.97 450.199 181.294 450.346 180.649C450.492 180.003 450.837 179.419 451.332 178.98C451.879 178.664 452.5 178.498 453.132 178.498C453.764 178.498 454.385 178.664 454.932 178.98C456.66 179.856 457.968 181.44 459.732 182.184C461.496 182.928 463.572 182.748 465.528 182.952C467.703 183.129 469.765 183.99 471.42 185.412C472.245 186.121 472.892 187.014 473.309 188.018C473.726 189.023 473.901 190.111 473.82 191.196C476.472 191.04 479.376 191.196 481.428 192.84C481.273 191.771 481.404 190.68 481.809 189.678C482.214 188.677 482.877 187.801 483.732 187.14C484.822 186.382 486.088 185.915 487.409 185.785C488.73 185.655 490.063 185.865 491.28 186.396C491.857 186.593 492.387 186.908 492.835 187.321C493.284 187.734 493.641 188.237 493.884 188.796C494.424 190.416 493.404 192.156 492.12 193.284C490.919 194.303 489.495 195.027 487.963 195.396C486.431 195.765 484.834 195.769 483.3 195.408C483.786 196.66 483.991 198.004 483.9 199.344C483.768 201.66 481.908 204.06 481.092 206.232L480.912 207.66L479.52 213.6L475.8 213.3L476.82 200.82C476.82 200.82 477.516 195.576 472.956 195.756C468.396 195.936 461.928 200.676 453.192 198.84C451.759 198.669 450.381 198.181 449.16 197.412C448.584 196.995 448.127 196.434 447.834 195.786C447.542 195.137 447.424 194.424 447.492 193.716Z" fill="#263238"/>
<path d="M496.416 199.2C495.714 199.738 494.889 200.092 494.016 200.232C491.895 200.714 489.673 200.454 487.72 199.495C485.768 198.536 484.203 196.937 483.288 194.964C482.859 194.185 482.632 193.31 482.628 192.42C482.736 192.42 482.928 193.392 483.684 194.82C484.652 196.624 486.161 198.08 488 198.982C489.838 199.884 491.913 200.186 493.932 199.848C495.468 199.536 496.368 199.08 496.416 199.2Z" fill="#263238"/>
<path d="M487.5 206.112C487.404 206.112 487.5 205.368 487.284 204.264C486.943 202.822 486.354 201.449 485.544 200.208C484.697 198.94 483.935 197.617 483.264 196.248C482.952 195.682 482.787 195.046 482.784 194.4C483.12 194.928 483.413 195.481 483.66 196.056C484.2 197.064 485.124 198.36 486.06 199.884C486.92 201.182 487.485 202.652 487.716 204.192C487.856 204.838 487.78 205.513 487.5 206.112Z" fill="#263238"/>
<path d="M425.328 275.52C421.151 272.979 417.117 270.211 413.244 267.228C408.6 263.304 408.936 262.872 409.476 262.428C410.916 261.144 417.876 269.028 417.36 266.436C416.844 263.844 407.76 257.82 409.296 256.548C411.336 254.88 418.488 263.268 419.148 263.928C419.808 264.588 420.768 263.64 420.144 263.076C419.244 262.26 410.028 253.476 412.008 251.82C413.112 250.896 414.528 253.08 414.528 253.08C414.528 253.08 422.568 261.972 423.48 261.156C424.392 260.34 419.88 254.952 418.2 253.248C416.52 251.544 416.676 250.092 418.008 249.96C418.908 249.876 424.104 254.964 425.712 256.68C427.32 258.396 431.616 263.208 431.376 259.08C431.136 254.952 432.456 251.664 433.416 251.028C434.376 250.392 435.588 251.544 435.132 252.744C434.766 254.097 434.589 255.494 434.604 256.896C434.569 258.022 434.723 259.145 435.06 260.22C435.348 261.144 435.636 261.96 435.912 262.68L438.732 270.444L431.652 279.408L425.328 275.52Z" fill="#FFBE9D"/>
<path d="M495.18 248.832C496.668 249.204 505.524 253.788 505.668 273.864C505.776 289.824 504.552 325.248 493.668 330.516C488.736 332.916 481.248 332.916 474.744 328.656C456.408 316.812 423.936 278.628 423.936 278.628L438.468 263.148C438.468 263.148 476.196 301.548 477.804 300.132C480.204 297.996 476.52 279.66 478.584 261.54C480 248.652 486 246.54 495.18 248.832Z" fill="#455A64"/>
<path d="M438.444 263.7C438.372 263.798 438.287 263.887 438.192 263.964L437.412 264.732C436.728 265.392 435.72 266.376 434.448 267.696C430.827 271.436 427.497 275.448 424.488 279.696V279.42C434.736 289.872 449.688 305.076 466.284 321.984C470.204 325.712 474.987 328.413 480.204 329.844C482.662 330.528 485.243 330.642 487.752 330.18C490.138 329.652 492.354 328.534 494.196 326.928C497.558 323.849 500.018 319.912 501.312 315.54C502.459 311.728 503.231 307.814 503.616 303.852C504.588 296.652 505.104 290.652 505.332 286.608C505.452 284.568 505.512 283.008 505.56 281.904V280.704C505.544 280.568 505.544 280.431 505.56 280.296C505.578 280.435 505.578 280.577 505.56 280.716C505.56 281.016 505.56 281.424 505.56 281.916C505.56 282.996 505.56 284.58 505.452 286.632C505.296 290.724 504.852 296.652 503.928 303.924C503.569 307.92 502.818 311.871 501.684 315.72C500.387 320.189 497.898 324.221 494.484 327.384C492.573 329.061 490.27 330.229 487.788 330.78C485.192 331.262 482.521 331.147 479.976 330.444C474.65 329 469.768 326.253 465.768 322.452C449.112 305.52 434.28 290.208 424.104 279.732L423.972 279.6L424.08 279.456C427.131 275.219 430.518 271.234 434.208 267.54C435.516 266.256 436.608 265.296 437.268 264.648L438.084 263.94L438.444 263.7Z" fill="#263238"/>
<path d="M438.456 263.148C438.456 263.148 438.54 263.148 438.66 263.316L439.224 263.88L441.372 266.052C443.232 267.948 445.956 270.66 449.376 273.984C452.796 277.308 456.924 281.268 461.58 285.612L468.924 292.416C471.504 294.744 474.168 297.216 477.024 299.544L476.532 299.784C476.616 298.368 476.7 296.868 476.784 295.356C477.264 287.424 477.708 279.864 478.116 272.988C478.368 269.556 478.428 266.28 478.8 263.22C479.077 260.359 479.865 257.57 481.128 254.988C482.175 252.842 483.763 251.005 485.736 249.66C487.245 248.672 488.978 248.082 490.776 247.944C491.904 247.85 493.04 247.989 494.112 248.352C494.488 248.462 494.848 248.624 495.18 248.832C495.18 248.832 494.808 248.676 494.076 248.472C493.008 248.168 491.892 248.07 490.788 248.184C489.048 248.364 487.379 248.97 485.928 249.948C484.039 251.298 482.521 253.101 481.512 255.192C480.31 257.738 479.563 260.476 479.304 263.28C478.968 266.304 478.932 269.58 478.692 273.012L477.408 295.38C477.324 296.892 477.228 298.404 477.156 299.808V300.42L476.688 300.048C473.76 297.648 471.144 295.248 468.564 292.848C465.984 290.448 463.56 288.192 461.232 286.008C456.6 281.628 452.496 277.608 449.112 274.284C445.728 270.96 443.052 268.14 441.24 266.196C440.316 265.236 439.644 264.468 439.176 263.94L438.66 263.352C438.504 263.22 438.444 263.148 438.456 263.148Z" fill="#263238"/>
<path d="M430.344 285.036C430.861 284.116 431.477 283.255 432.18 282.468C433.38 280.944 435.084 278.868 437.04 276.624C438.996 274.38 440.808 272.4 442.152 270.996C442.839 270.195 443.607 269.467 444.444 268.824C443.869 269.709 443.21 270.537 442.476 271.296L437.508 277.032L432.516 282.756C431.866 283.583 431.139 284.346 430.344 285.036Z" fill="#263238"/>
<path d="M480.3 308.796C479.558 307.329 478.948 305.799 478.476 304.224C477.799 302.726 477.253 301.172 476.844 299.58C478.624 302.379 479.801 305.517 480.3 308.796Z" fill="#263238"/>
<path d="M483.6 306.24C482.187 305.369 480.889 304.325 479.736 303.132C478.447 302.076 477.29 300.867 476.292 299.532C479.004 301.448 481.459 303.702 483.6 306.24Z" fill="#263238"/>
<path d="M124.176 485.004L85.6319 519.792L75.0719 506.28L108.852 464.436L124.176 485.004Z" fill="#FFBE9D"/>
<path d="M86.5199 521.1L87.8399 519.9L75.6719 504.96L70.1879 509.76L70.9199 510.696C74.1959 514.86 87.8879 531.636 91.0319 533.58C94.5359 535.74 86.5199 521.1 86.5199 521.1Z" fill="#29B3D1"/>
<g opacity="0.5">
<path opacity="0.5" d="M74.9039 514.872C75.9313 513.592 76.4447 511.974 76.3439 510.336C76.2712 508.716 75.5848 507.184 74.4239 506.052L70.4039 509.652L74.9039 514.872Z" fill="white"/>
</g>
<path opacity="0.5" d="M90.2279 528.444C90.2279 528.444 92.7719 533.82 91.5839 533.904C90.3959 533.988 75.9839 517.56 70.1879 509.76L70.5359 509.496L87.2519 528.804C87.2519 528.804 89.4479 527.64 90.2279 528.444Z" fill="white"/>
<path d="M70.3439 509.268C70.3981 509.363 70.4625 509.451 70.5359 509.532L71.1119 510.288L73.3079 513C75.1679 515.28 77.7959 518.388 80.7599 521.76C83.7239 525.132 86.4839 528.132 88.5119 530.28L90.9119 532.8L91.5719 533.472C91.6475 533.557 91.732 533.633 91.8239 533.7L91.6079 533.436L90.9719 532.74C90.3359 532.032 89.5439 531.18 88.5719 530.172C86.5799 528 83.8439 524.988 80.8799 521.616C77.9159 518.244 75.2759 515.148 73.3679 512.892L71.1239 510.228L70.5119 509.508C70.4647 509.422 70.4084 509.342 70.3439 509.268Z" fill="#263238"/>
<path d="M87.024 528.996C87.5571 528.725 88.1212 528.519 88.704 528.384C89.2981 528.316 89.8979 528.316 90.492 528.384C89.9352 528.08 89.2846 527.994 88.668 528.144C88.0338 528.216 87.4484 528.52 87.024 528.996Z" fill="#263238"/>
<path d="M85.4398 522.852C85.7515 522.926 86.0762 522.926 86.3878 522.852C86.9038 522.78 87.3118 522.66 87.2998 522.588C86.6646 522.534 86.026 522.637 85.4398 522.888V522.852Z" fill="#263238"/>
<path d="M85.0318 521.148C85.0318 521.148 85.3678 521.304 85.8118 521.352C86.2558 521.4 86.6158 521.352 86.6278 521.352C86.6398 521.352 86.2798 521.196 85.8358 521.148C85.3918 521.1 85.0318 521.076 85.0318 521.148Z" fill="#263238"/>
<path d="M85.74 519.216C85.74 519.216 85.944 519.624 86.304 520.044C86.664 520.464 87 520.776 87.048 520.728C87.096 520.68 86.844 520.32 86.472 519.9C86.1 519.48 85.788 519.168 85.74 519.216Z" fill="#263238"/>
<path d="M86.4719 518.112C86.5202 518.507 86.6924 518.877 86.9639 519.168C87.3599 519.684 87.8039 519.984 87.8399 519.936C87.8759 519.888 87.5159 519.528 87.1559 519.024C86.9523 518.702 86.7236 518.398 86.4719 518.112Z" fill="#263238"/>
<path d="M87.12 522.24C87.3402 522.591 87.6205 522.899 87.948 523.152C88.2797 523.453 88.6416 523.718 89.028 523.944C89.253 524.1 89.4996 524.221 89.76 524.304C89.9146 524.363 90.0855 524.363 90.24 524.304C90.3235 524.26 90.3919 524.191 90.4367 524.108C90.4816 524.025 90.5008 523.93 90.4921 523.836C90.399 523.513 90.2359 523.214 90.0144 522.961C89.7928 522.708 89.5183 522.506 89.2102 522.371C88.902 522.236 88.568 522.17 88.2316 522.179C87.8953 522.187 87.5649 522.27 87.264 522.42C87.1592 522.469 87.0652 522.538 86.988 522.624C87.3666 522.456 87.774 522.362 88.188 522.348C88.6119 522.343 89.0283 522.46 89.388 522.684C89.61 522.813 89.8033 522.986 89.956 523.192C90.1087 523.399 90.2176 523.634 90.276 523.884C90.276 524.124 90.084 524.22 89.844 524.148C89.6073 524.06 89.3785 523.951 89.16 523.824C88.7788 523.607 88.4138 523.362 88.068 523.092C87.456 522.564 87.156 522.204 87.12 522.24Z" fill="#263238"/>
<path d="M87.288 522.516C87.5801 522.46 87.8409 522.298 88.02 522.06C88.2396 521.818 88.3962 521.525 88.476 521.208C88.5521 521.008 88.5733 520.791 88.5374 520.58C88.5016 520.369 88.4099 520.172 88.272 520.008C88.1672 519.934 88.0381 519.903 87.911 519.921C87.7839 519.938 87.6683 520.004 87.588 520.104C87.4616 520.255 87.3677 520.431 87.312 520.62C87.2158 520.924 87.1593 521.238 87.144 521.556C87.0985 521.843 87.1274 522.136 87.228 522.408C87.2722 522.13 87.2962 521.85 87.3 521.568C87.3462 521.27 87.4184 520.977 87.516 520.692C87.6 520.392 87.876 519.996 88.128 520.188C88.2175 520.329 88.2766 520.488 88.3014 520.653C88.3262 520.818 88.3162 520.987 88.272 521.148C88.2071 521.436 88.0801 521.706 87.9 521.94C87.7124 522.149 87.5077 522.342 87.288 522.516Z" fill="#263238"/>
<path d="M74.5318 506.088C74.5318 506.088 74.9398 506.46 75.4318 507.18C76.0812 508.115 76.4591 509.212 76.5238 510.348C76.5658 511.482 76.3004 512.605 75.7558 513.6C75.3238 514.356 74.9278 514.8 74.9638 514.8C74.9998 514.8 75.0838 514.728 75.2518 514.548C75.4946 514.293 75.7079 514.011 75.8878 513.708C76.5069 512.705 76.8081 511.538 76.7518 510.36C76.6848 509.181 76.2669 508.049 75.5518 507.108C75.3418 506.826 75.1003 506.568 74.8318 506.34C74.6638 506.148 74.5438 506.076 74.5318 506.088Z" fill="#263238"/>
<path d="M77.8799 515.46C78.3357 516.285 78.8964 517.047 79.5479 517.728C80.1438 518.463 80.8337 519.117 81.5999 519.672C81.5999 519.672 80.7599 518.736 79.7399 517.572C78.7199 516.408 77.9999 515.424 77.8799 515.46Z" fill="#263238"/>
<path d="M75.42 512.628C75.348 512.628 75.288 512.88 75.156 513.156C75.024 513.432 74.88 513.672 74.928 513.72C74.976 513.768 75.216 513.588 75.372 513.252C75.528 512.916 75.48 512.628 75.42 512.628Z" fill="#263238"/>
<path d="M75.804 510.396C75.744 510.396 75.672 510.612 75.648 510.9C75.624 511.188 75.648 511.416 75.732 511.416C75.816 511.416 75.864 511.2 75.888 510.912C75.912 510.624 75.864 510.396 75.804 510.396Z" fill="#263238"/>
<path d="M75.0719 508.344C75.0719 508.344 75.2039 508.584 75.3119 508.86C75.4199 509.136 75.4439 509.388 75.5159 509.4C75.5879 509.412 75.6719 509.112 75.5159 508.776C75.3599 508.44 75.0959 508.284 75.0719 508.344Z" fill="#263238"/>
<path d="M74.4 507.012C74.4 507.012 74.4 507.18 74.4 507.336C74.4 507.492 74.556 507.612 74.616 507.588C74.676 507.564 74.616 507.42 74.616 507.252C74.616 507.084 74.46 506.988 74.4 507.012Z" fill="#263238"/>
<path d="M192.732 484.644L197.376 537.192H177.516L168.756 484.644H192.732Z" fill="#FFBE9D"/>
<path d="M196.8 537.684V535.92L177.516 535.836L177.744 543.12H178.944C184.248 543.216 205.896 543.264 209.388 542.064C213.156 540.768 196.8 537.684 196.8 537.684Z" fill="#29B3D1"/>
<g opacity="0.5">
<path opacity="0.5" d="M184.56 542.712C184.221 541.105 183.298 539.681 181.968 538.716C180.662 537.766 179.049 537.339 177.444 537.516L177.636 542.88L184.56 542.712Z" fill="white"/>
</g>
<path opacity="0.5" d="M204.78 539.472C204.78 539.472 210.54 540.912 209.868 541.872C209.196 542.832 187.308 543.612 177.624 543.072V542.64L203.16 541.956C203.16 541.956 203.664 539.568 204.78 539.472Z" fill="white"/>
<path d="M177.336 542.688H177.672H178.62H182.1C185.052 542.688 189.12 542.688 193.608 542.484C198.096 542.28 202.164 542.1 205.104 541.896L208.584 541.632L209.532 541.536H209.856H209.532H208.584L205.092 541.728C202.152 541.896 198.096 542.1 193.608 542.256C189.12 542.412 185.052 542.484 182.1 542.52H178.62H177.672L177.336 542.688Z" fill="#263238"/>
<path d="M203.172 542.304C203.304 541.72 203.501 541.152 203.76 540.612C204.106 540.111 204.509 539.652 204.96 539.244C204.367 539.476 203.886 539.927 203.616 540.504C203.251 541.029 203.093 541.67 203.172 542.304Z" fill="#263238"/>
<path d="M197.412 539.628C197.472 539.628 197.736 539.328 198 538.872C198.264 538.416 198.432 538.032 198.372 537.996C198.127 538.208 197.931 538.47 197.796 538.764C197.607 539.021 197.476 539.316 197.412 539.628Z" fill="#263238"/>
<path d="M195.84 538.872C195.84 538.872 196.176 538.704 196.5 538.392C196.824 538.08 197.04 537.792 196.992 537.756C196.944 537.72 196.656 537.912 196.332 538.224C196.008 538.536 195.792 538.8 195.84 538.872Z" fill="#263238"/>
<path d="M194.796 537.096C195.117 537.201 195.458 537.23 195.792 537.18C196.134 537.208 196.477 537.163 196.8 537.048C196.476 536.937 196.131 536.904 195.792 536.952C195.24 536.964 194.796 537.024 194.796 537.096Z" fill="#263238"/>
<path d="M194.4 535.824C194.737 536.034 195.131 536.135 195.528 536.112C195.938 536.179 196.359 536.111 196.728 535.92C196.353 535.88 195.975 535.88 195.6 535.92C195.203 535.854 194.802 535.822 194.4 535.824Z" fill="#263238"/>
<path d="M198 537.936C198.397 538.006 198.803 538.006 199.2 537.936C199.645 537.863 200.083 537.751 200.508 537.6C200.764 537.516 201.009 537.403 201.24 537.264C201.385 537.173 201.492 537.032 201.54 536.868C201.554 536.777 201.543 536.684 201.507 536.599C201.471 536.514 201.412 536.441 201.336 536.388C200.858 536.17 200.32 536.126 199.813 536.264C199.307 536.402 198.865 536.714 198.564 537.144C198.38 537.393 198.253 537.68 198.192 537.984C198.164 538.09 198.164 538.202 198.192 538.308C198.313 537.927 198.491 537.567 198.72 537.24C198.986 536.909 199.339 536.66 199.74 536.52C199.974 536.422 200.225 536.371 200.478 536.371C200.731 536.371 200.982 536.422 201.216 536.52C201.42 536.664 201.348 536.892 201.132 537.036C200.917 537.159 200.693 537.264 200.46 537.348C200.051 537.507 199.63 537.631 199.2 537.72C198.48 537.876 198 537.9 198 537.936Z" fill="#263238"/>
<path d="M198.336 537.984C198.47 537.721 198.508 537.42 198.444 537.132C198.397 536.81 198.269 536.504 198.072 536.244C197.966 536.061 197.814 535.909 197.631 535.804C197.447 535.699 197.24 535.643 197.028 535.644C196.905 535.678 196.799 535.758 196.732 535.867C196.665 535.976 196.642 536.107 196.668 536.232C196.698 536.428 196.777 536.614 196.896 536.772C197.066 537.039 197.272 537.282 197.508 537.492C197.703 537.712 197.951 537.877 198.228 537.972C198.228 537.972 197.976 537.756 197.616 537.384C197.417 537.159 197.237 536.918 197.076 536.664C196.896 536.4 196.764 535.944 197.076 535.872C197.388 535.8 197.712 536.136 197.904 536.364C198.086 536.597 198.213 536.868 198.276 537.156C198.318 537.43 198.338 537.707 198.336 537.984Z" fill="#263238"/>
<path d="M177.6 537.432C177.6 537.432 178.152 537.36 179.016 537.432C180.152 537.53 181.237 537.946 182.148 538.632C183.055 539.313 183.757 540.23 184.176 541.284C184.5 542.1 184.548 542.652 184.596 542.64C184.615 542.513 184.615 542.383 184.596 542.256C184.544 541.909 184.46 541.567 184.344 541.236C183.963 540.119 183.251 539.144 182.304 538.44C181.351 537.748 180.216 537.351 179.04 537.3C178.689 537.27 178.335 537.27 177.984 537.3C177.85 537.322 177.72 537.366 177.6 537.432Z" fill="#263238"/>
<path d="M186.912 540.78C187.837 540.957 188.781 541.009 189.72 540.936C190.662 540.943 191.602 540.83 192.516 540.6C192.516 540.528 191.256 540.66 189.708 540.708C188.16 540.756 186.912 540.72 186.912 540.78Z" fill="#263238"/>
<path d="M183.156 540.888C183.156 540.888 183.264 541.152 183.408 541.428C183.552 541.704 183.624 541.968 183.684 541.968C183.744 541.968 183.78 541.656 183.612 541.332C183.444 541.008 183.192 540.84 183.156 540.888Z" fill="#263238"/>
<path d="M181.68 539.184C181.68 539.184 181.764 539.424 181.968 539.616C182.172 539.808 182.376 539.928 182.424 539.88C182.472 539.832 182.34 539.64 182.124 539.448C181.908 539.256 181.716 539.136 181.68 539.184Z" fill="#263238"/>
<path d="M179.628 538.44C179.628 538.512 179.892 538.5 180.18 538.584C180.468 538.668 180.672 538.824 180.72 538.776C180.768 538.728 180.6 538.464 180.24 538.368C179.88 538.272 179.604 538.392 179.628 538.44Z" fill="#263238"/>
<path d="M178.164 538.116C178.164 538.176 178.26 538.272 178.416 538.332C178.572 538.392 178.728 538.332 178.752 538.332C178.776 538.332 178.656 538.176 178.5 538.116C178.344 538.056 178.188 538.056 178.164 538.116Z" fill="#263238"/>
<path d="M157.824 330.42C157.824 330.42 173.364 433.62 171.108 438.648C168.852 443.676 118.512 495.168 118.512 495.168L99.6001 462.816C99.6001 462.816 132.912 425.916 132.432 424.008C131.952 422.1 108.432 322.116 108.432 322.116L157.824 330.42Z" fill="#263238"/>
<path d="M163.356 368.532C163.2 367.428 150.66 339.24 150.66 339.24L156.744 330.648L157.824 330.42L163.356 368.532Z" fill="#263238"/>
<path d="M99.6 320.7L98.652 324.528C95.9067 335.824 97.6261 347.744 103.452 357.804L145.548 430.8C148.539 435.972 150.716 441.574 152.004 447.408L162.504 494.64H197.064C197.064 494.64 192.792 462.24 188.988 438.612C186.108 420.768 162.228 365.412 150.66 339.204L157.86 330.384L145.416 328.308L99.6 320.7Z" fill="#263238"/>
<path d="M151.572 339.036C152.054 340.615 152.644 342.158 153.336 343.656C154.536 346.476 156.072 350.376 157.752 354.708C159.432 359.04 160.908 363 161.964 365.856C162.471 367.426 163.08 368.962 163.788 370.452C163.744 370.005 163.644 369.566 163.488 369.144C163.26 368.328 162.9 367.14 162.432 365.688C161.484 362.784 160.032 358.812 158.4 354.456C156.768 350.1 155.052 346.236 153.78 343.464C153.144 342.072 152.58 340.956 152.232 340.2C152.065 339.785 151.843 339.393 151.572 339.036Z" fill="#455A64"/>
<path d="M155.352 461.748C155.378 461.477 155.378 461.203 155.352 460.932C155.28 460.32 155.196 459.552 155.088 458.592C154.968 457.355 154.784 456.125 154.536 454.908C154.26 453.492 153.996 451.848 153.528 450.108C153.312 449.22 153.084 448.284 152.844 447.324C152.604 446.364 152.268 445.368 151.956 444.336C151.38 442.26 150.564 440.112 149.772 437.832C147.89 432.921 145.747 428.114 143.352 423.432C138.915 415.011 134.004 406.85 128.64 398.988C126.612 395.964 124.932 393.528 123.756 391.86L122.4 390C122.247 389.773 122.075 389.56 121.884 389.364C121.987 389.619 122.12 389.86 122.28 390.084L123.54 392.064C124.74 393.852 126.3 396.3 128.244 399.264C132.192 405.384 137.64 413.88 142.752 423.744C145.113 428.386 147.239 433.144 149.124 438C149.928 440.256 150.768 442.392 151.368 444.444C151.68 445.464 152.004 446.448 152.28 447.408C152.556 448.368 152.772 449.28 153 450.168C153.504 451.92 153.792 453.54 154.104 454.968C154.416 456.396 154.632 457.608 154.776 458.568C154.92 459.528 155.064 460.284 155.172 460.884C155.199 461.178 155.259 461.468 155.352 461.748Z" fill="#455A64"/>
<path d="M105.276 354.36C105.276 354.36 105.18 354.252 105.012 354L104.28 352.8C104.857 351.894 105.611 351.114 106.498 350.507C107.385 349.901 108.386 349.481 109.44 349.272C111.016 348.917 112.645 348.869 114.24 349.128C116.112 349.455 117.952 349.949 119.736 350.604C121.797 351.241 123.804 352.044 125.736 353.004C127.941 354.103 129.675 355.961 130.62 358.236C131.091 359.478 131.171 360.835 130.848 362.124C130.454 363.373 129.935 364.579 129.3 365.724C128.651 366.841 128.3 368.105 128.28 369.396C128.385 370.699 128.981 371.913 129.948 372.792C132.252 375.084 135.66 375.504 138.48 376.932C141.232 378.325 143.475 380.551 144.888 383.292C146.215 385.73 146.838 388.489 146.688 391.26C146.546 393.676 145.768 396.011 144.432 398.028C142.524 400.958 139.676 403.15 136.356 404.244C135.462 404.526 134.541 404.715 133.608 404.808C133.284 404.832 132.959 404.832 132.636 404.808C133.857 404.63 135.062 404.349 136.236 403.968C139.445 402.815 142.18 400.629 144.012 397.752C145.277 395.791 146.006 393.531 146.124 391.2C146.237 388.525 145.618 385.87 144.336 383.52C142.96 380.898 140.799 378.771 138.156 377.436C136.8 376.764 135.276 376.308 133.752 375.732C132.155 375.206 130.69 374.342 129.456 373.2C128.377 372.209 127.716 370.845 127.608 369.384C127.629 367.989 128.005 366.622 128.7 365.412C129.323 364.298 129.833 363.124 130.224 361.908C130.52 360.734 130.445 359.497 130.008 358.368C129.13 356.216 127.501 354.455 125.424 353.412C123.525 352.435 121.551 351.613 119.52 350.952C117.775 350.281 115.971 349.775 114.132 349.44C112.595 349.158 111.017 349.178 109.488 349.5C108.465 349.689 107.489 350.078 106.615 350.644C105.742 351.21 104.99 351.943 104.4 352.8L105.06 354C105.145 354.112 105.218 354.232 105.276 354.36Z" fill="#FAFAFA"/>
<path d="M192.528 461.88C191.68 461.135 190.72 460.528 189.684 460.08C188.448 459.595 187.159 459.257 185.844 459.072C184.32 458.82 182.544 458.664 180.6 458.352C178.446 458.043 176.367 457.34 174.468 456.276C170.833 454.243 168.061 450.958 166.668 447.033C165.275 443.108 165.356 438.81 166.896 434.94C168.036 432.12 169.752 429.672 170.232 426.948C170.536 424.283 170.148 421.584 169.104 419.112C168.192 416.82 167.414 414.476 166.776 412.092C166.259 409.967 166.259 407.749 166.776 405.624C167.528 402.547 169.264 399.8 171.72 397.8C172.598 397.057 173.596 396.468 174.672 396.06C173.693 396.628 172.758 397.27 171.876 397.98C169.545 400.005 167.911 402.713 167.208 405.72C166.711 407.779 166.711 409.926 167.208 411.984C167.876 414.34 168.677 416.656 169.608 418.92C170.705 421.479 171.119 424.278 170.808 427.044C170.304 429.96 168.54 432.444 167.46 435.18C165.972 438.911 165.881 443.053 167.204 446.845C168.527 450.638 171.175 453.825 174.66 455.82C176.515 456.881 178.549 457.593 180.66 457.92C182.58 458.256 184.356 458.436 185.892 458.724C187.229 458.961 188.531 459.364 189.768 459.924C190.547 460.273 191.27 460.734 191.916 461.292C192.336 461.64 192.552 461.856 192.528 461.88Z" fill="#FAFAFA"/>
<path d="M176.4 496.308C176.28 496.308 176.244 494.748 175.62 492.336C175.253 490.927 174.751 489.556 174.12 488.244C173.331 486.645 172.378 485.133 171.276 483.732C170.147 482.35 168.876 481.091 167.484 479.976C166.34 479.06 165.11 478.256 163.812 477.576C161.592 476.448 160.068 476.076 160.104 475.956C160.473 475.96 160.839 476.029 161.184 476.16C161.593 476.252 161.994 476.377 162.384 476.532C162.925 476.713 163.455 476.929 163.968 477.18C165.326 477.804 166.614 478.572 167.808 479.472C170.739 481.69 173.072 484.601 174.6 487.944C175.222 489.301 175.697 490.721 176.016 492.18C176.15 492.737 176.246 493.302 176.304 493.872C176.372 494.296 176.405 494.726 176.4 495.156C176.467 495.537 176.467 495.927 176.4 496.308Z" fill="#FAFAFA"/>
<path d="M158.664 360.564C158.664 360.564 158.508 360.564 158.196 360.66C157.739 360.725 157.278 360.765 156.816 360.78C155.119 360.836 153.423 360.655 151.776 360.24C149.318 359.648 146.991 358.606 144.912 357.168C142.321 355.437 140.19 353.101 138.704 350.362C137.217 347.624 136.42 344.564 136.38 341.448C136.323 338.92 136.73 336.402 137.58 334.02C138.136 332.413 138.912 330.891 139.884 329.496C140.14 329.118 140.421 328.758 140.724 328.416C140.928 328.176 141.048 328.056 141.06 328.068C139.782 329.96 138.754 332.009 138 334.164C137.24 336.51 136.899 338.972 136.992 341.436C137.056 344.448 137.834 347.402 139.26 350.055C140.687 352.709 142.723 354.986 145.2 356.7C147.213 358.12 149.459 359.176 151.836 359.82C154.069 360.367 156.365 360.618 158.664 360.564Z" fill="#FAFAFA"/>
<path d="M127.896 427.896C128.128 427.977 128.353 428.077 128.568 428.196C129.012 428.4 129.636 428.748 130.428 429.216C132.67 430.576 134.656 432.318 136.296 434.364C137.429 435.8 138.298 437.425 138.864 439.164C139.492 441.178 139.632 443.313 139.272 445.392C138.913 447.723 137.8 449.873 136.104 451.512C134.328 453.24 131.724 453.816 130.212 455.712C128.7 457.608 128.364 460.092 128.136 462.408C128.063 464.71 127.659 466.99 126.936 469.176C126.122 471.152 124.64 472.779 122.748 473.772C121.14 474.65 119.366 475.181 117.54 475.332C114.924 475.476 112.301 475.217 109.764 474.564C108.864 474.348 108.18 474.168 107.712 474.036C107.471 473.99 107.237 473.914 107.016 473.808C107.263 473.82 107.508 473.856 107.748 473.916L109.812 474.324C112.331 474.881 114.918 475.071 117.492 474.888C119.246 474.719 120.946 474.188 122.484 473.328C124.258 472.37 125.645 470.826 126.408 468.96C127.083 466.818 127.459 464.593 127.524 462.348C127.612 461.136 127.797 459.932 128.076 458.748C128.358 457.493 128.924 456.318 129.732 455.316C131.46 453.24 134.076 452.676 135.732 451.068C137.336 449.527 138.393 447.505 138.744 445.308C139.1 443.309 138.985 441.255 138.408 439.308C137.88 437.627 137.068 436.048 136.008 434.64C134.423 432.605 132.514 430.845 130.356 429.432C129.6 428.928 128.988 428.556 128.568 428.316C128.327 428.205 128.102 428.064 127.896 427.896Z" fill="#FAFAFA"/>
<path d="M131.58 179.592C124.92 177.936 117.756 182.1 114.444 188.1C111.132 194.1 111.096 201.456 112.656 208.128C113.316 210.924 114.24 213.816 113.592 216.624C112.896 219.636 110.496 221.976 109.344 224.856C107.148 230.412 109.944 236.568 112.68 241.872C113.88 244.272 115.524 246.972 118.188 247.5C121.176 248.088 123.804 245.7 126.324 243.984C130.772 240.983 136.186 239.762 141.492 240.564C147.492 241.488 152.916 244.932 158.94 245.04C161.668 245.06 164.358 244.395 166.763 243.105C169.168 241.816 171.21 239.944 172.704 237.66C174.492 234.864 175.104 230.652 172.524 228.588C170.82 227.232 168.216 227.28 166.716 225.696C164.892 223.764 165.684 220.656 166.62 218.184C167.556 215.712 168.492 212.688 166.824 210.624C164.964 208.296 160.932 208.74 159.156 206.352C157.38 203.964 159.252 200.352 159.156 197.184C159.038 195.789 158.607 194.439 157.894 193.234C157.181 192.028 156.206 191 155.04 190.224C152.784 188.58 152.472 188.052 149.364 182.4" fill="#263238"/>
<path d="M122.292 234.468L146.292 236.52C146.292 236.52 163.776 233.964 170.472 278.304L197.04 277.212L198.24 294.876L161.7 296.676L157.392 294.096L157.824 330.42L97.38 325.968C98.748 317.724 105.192 306.876 107.352 299.916C105.156 294.42 93.012 272.016 92.412 260.508C90.78 228.996 122.292 234.468 122.292 234.468Z" fill="#6D36DA"/>
<path opacity="0.3" d="M160.092 266.976C160.092 266.976 164.34 271.776 164.412 275.82C164.52 282.3 162.888 285.624 164.916 292.704L159.132 294.096C159.132 294.096 158.244 292.368 159 288.672C159.756 284.976 161.22 280.476 161.868 276.456C162.443 273.185 161.812 269.817 160.092 266.976Z" fill="black"/>
<path d="M159.132 294.096C158.955 293.641 158.834 293.165 158.772 292.68C158.602 291.358 158.602 290.019 158.772 288.696C159.029 286.753 159.43 284.832 159.972 282.948C160.654 280.674 161.183 278.357 161.556 276.012C161.912 273.692 161.66 271.318 160.824 269.124C160.058 267.368 159.012 265.747 157.728 264.324C155.544 261.84 153.996 260.46 154.128 260.376C154.537 260.637 154.919 260.939 155.268 261.276C156.268 262.141 157.217 263.063 158.112 264.036C159.485 265.471 160.602 267.131 161.412 268.944C162.322 271.228 162.599 273.716 162.216 276.144C161.851 278.519 161.301 280.862 160.572 283.152C160.004 285.007 159.551 286.894 159.216 288.804C159.014 290.094 158.946 291.401 159.012 292.704C159.1 293.163 159.141 293.629 159.132 294.096Z" fill="#263238"/>
<g opacity="0.2">
<path opacity="0.2" d="M159.924 293.64L142.02 294.048C140.601 294.182 139.17 294.014 137.82 293.556C135.936 292.764 134.724 290.928 133.668 289.176C130.524 283.992 127.644 278.664 125.028 273.192C125.028 273.192 129.756 288.228 132.72 294.792C133.008 295.62 133.603 296.306 134.383 296.708C135.162 297.11 136.066 297.197 136.908 296.952C144.7 296.966 152.452 295.85 159.924 293.64Z" fill="black"/>
</g>
<path d="M276.972 254.04C279.612 253.852 282.256 254.344 284.652 255.468C285.673 255.966 286.792 256.229 287.928 256.236H290.856V218.616C290.856 217.857 290.706 217.106 290.416 216.405C290.125 215.703 289.698 215.067 289.161 214.53C288.624 213.994 287.986 213.569 287.285 213.28C286.583 212.991 285.831 212.843 285.072 212.844H247.608V210.3C247.62 209.121 247.899 207.96 248.424 206.904C249.851 203.979 250.313 200.677 249.744 197.472C249.078 193.62 246.99 190.158 243.894 187.772C240.797 185.386 236.918 184.25 233.023 184.588C229.129 184.926 225.503 186.714 222.864 189.597C220.225 192.481 218.764 196.251 218.772 200.16C218.772 202.322 219.226 204.46 220.104 206.436C220.548 207.426 220.785 208.496 220.8 209.58V212.844H184.26C182.729 212.844 181.261 213.452 180.179 214.535C179.096 215.617 178.488 217.085 178.488 218.616V320.244C178.488 320.862 178.61 321.474 178.846 322.044C179.082 322.615 179.429 323.134 179.866 323.57C180.303 324.007 180.821 324.354 181.392 324.59C181.963 324.826 182.574 324.948 183.192 324.948H286.152C287.399 324.945 288.593 324.448 289.475 323.567C290.356 322.685 290.853 321.491 290.856 320.244V283.512H286.692C285.729 283.513 284.776 283.701 283.884 284.064C282.04 284.817 280.068 285.204 278.076 285.204C273.939 285.351 269.913 283.847 266.883 281.025C263.854 278.203 262.07 274.294 261.924 270.156C261.778 266.019 263.281 261.993 266.103 258.964C268.925 255.935 272.835 254.151 276.972 254.004V254.04Z" fill="#0FAD58"/>
<path d="M276.972 254.04C279.612 253.852 282.256 254.344 284.652 255.468C285.673 255.966 286.792 256.229 287.928 256.236H290.856V218.616C290.856 217.857 290.706 217.106 290.416 216.405C290.125 215.703 289.698 215.067 289.161 214.53C288.624 213.994 287.986 213.569 287.285 213.28C286.583 212.991 285.831 212.843 285.072 212.844H247.608V210.3C247.62 209.121 247.899 207.96 248.424 206.904C249.851 203.979 250.313 200.677 249.744 197.472C249.078 193.62 246.99 190.158 243.894 187.772C240.797 185.386 236.918 184.25 233.023 184.588C229.129 184.926 225.503 186.714 222.864 189.597C220.225 192.481 218.764 196.251 218.772 200.16C218.772 202.322 219.226 204.46 220.104 206.436C220.548 207.426 220.785 208.496 220.8 209.58V212.844H184.26C182.729 212.844 181.261 213.452 180.179 214.535C179.096 215.617 178.488 217.085 178.488 218.616V320.244C178.488 320.862 178.61 321.474 178.846 322.044C179.082 322.615 179.429 323.134 179.866 323.57C180.303 324.007 180.821 324.354 181.392 324.59C181.963 324.826 182.574 324.948 183.192 324.948H286.152C287.399 324.945 288.593 324.448 289.475 323.567C290.356 322.685 290.853 321.491 290.856 320.244V283.512H286.692C285.729 283.513 284.776 283.701 283.884 284.064C282.04 284.817 280.068 285.204 278.076 285.204C273.939 285.351 269.913 283.847 266.883 281.025C263.854 278.203 262.07 274.294 261.924 270.156C261.778 266.019 263.281 261.993 266.103 258.964C268.925 255.935 272.835 254.151 276.972 254.004V254.04Z" fill="#0FAD58"/>
<path d="M121.968 235.308L120.108 192.948L136.908 180.204L152.196 187.68C152.196 187.68 152.712 206.88 152.196 215.208C151.68 223.536 143.292 224.424 143.292 224.424C143.292 224.424 143.496 229.296 143.688 234.42C143.743 235.891 143.499 237.359 142.971 238.733C142.443 240.108 141.641 241.361 140.615 242.416C139.588 243.472 138.358 244.308 136.999 244.875C135.64 245.441 134.18 245.726 132.708 245.712C129.927 245.678 127.266 244.581 125.268 242.646C123.271 240.712 122.09 238.086 121.968 235.308Z" fill="#FFBE9D"/>
<path d="M150.564 201.672C150.564 201.883 150.501 202.09 150.384 202.266C150.267 202.441 150.1 202.578 149.905 202.659C149.709 202.74 149.495 202.761 149.288 202.72C149.08 202.678 148.89 202.577 148.741 202.427C148.591 202.278 148.49 202.088 148.448 201.881C148.407 201.673 148.428 201.459 148.509 201.264C148.59 201.068 148.727 200.902 148.903 200.784C149.078 200.667 149.285 200.604 149.496 200.604C149.779 200.604 150.051 200.717 150.251 200.917C150.451 201.117 150.564 201.389 150.564 201.672Z" fill="#263238"/>
<path d="M151.596 200.508C151.452 200.652 150.672 199.98 149.52 199.92C148.368 199.86 147.516 200.412 147.396 200.256C147.276 200.1 147.48 199.932 147.852 199.68C148.357 199.348 148.956 199.188 149.56 199.224C150.163 199.261 150.739 199.493 151.2 199.884C151.548 200.184 151.656 200.4 151.596 200.508Z" fill="#263238"/>
<path d="M138.216 201.672C138.216 201.883 138.153 202.09 138.036 202.266C137.919 202.441 137.752 202.578 137.557 202.659C137.362 202.74 137.147 202.761 136.94 202.72C136.732 202.678 136.542 202.577 136.393 202.427C136.243 202.278 136.142 202.088 136.101 201.881C136.059 201.673 136.08 201.459 136.161 201.264C136.242 201.068 136.379 200.902 136.555 200.784C136.73 200.667 136.937 200.604 137.148 200.604C137.431 200.604 137.703 200.717 137.903 200.917C138.103 201.117 138.216 201.389 138.216 201.672Z" fill="#263238"/>
<path d="M138.876 200.508C138.732 200.652 137.952 199.98 136.8 199.92C135.648 199.86 134.796 200.412 134.676 200.256C134.556 200.1 134.76 199.932 135.132 199.68C135.623 199.348 136.207 199.18 136.8 199.2C137.404 199.239 137.98 199.471 138.444 199.86C138.828 200.184 138.936 200.4 138.876 200.508Z" fill="#263238"/>
<path d="M143.328 224.4C139.371 224.232 135.545 222.938 132.3 220.668C132.3 220.668 135.06 226.896 143.412 226.56L143.328 224.4Z" fill="#EB996E"/>
<path d="M143.016 210.204C143.629 210.054 144.257 209.974 144.888 209.964C145.176 209.964 145.464 209.964 145.536 209.7C145.569 209.379 145.511 209.054 145.368 208.764C145.12 208.02 144.856 207.22 144.576 206.364C144.036 204.672 143.568 203.136 143.244 202.02C143.032 201.423 142.891 200.803 142.824 200.172C143.139 200.72 143.385 201.304 143.556 201.912C143.952 203.016 144.48 204.528 145.02 206.22L145.776 208.62C145.949 208.996 145.987 209.42 145.884 209.82C145.842 209.922 145.776 210.013 145.693 210.086C145.61 210.159 145.511 210.212 145.404 210.24C145.237 210.256 145.068 210.256 144.9 210.24C144.273 210.304 143.64 210.292 143.016 210.204Z" fill="#263238"/>
<path d="M142.164 211.2C141.714 211.319 141.301 211.55 140.964 211.872C140.757 212.047 140.621 212.292 140.581 212.56C140.541 212.828 140.6 213.101 140.747 213.329C140.894 213.557 141.119 213.724 141.38 213.798C141.64 213.872 141.919 213.849 142.164 213.732C142.384 213.684 142.591 213.59 142.771 213.455C142.951 213.321 143.1 213.149 143.208 212.952C143.309 212.747 143.349 212.517 143.324 212.289C143.298 212.062 143.208 211.846 143.064 211.668C142.914 211.506 142.714 211.401 142.496 211.368C142.278 211.335 142.055 211.378 141.864 211.488" fill="#EB996E"/>
<path d="M143.652 212.856C143.652 213.024 142.704 213.288 141.684 212.7C140.664 212.112 140.388 211.14 140.556 211.104C140.724 211.068 141.156 211.704 141.996 212.16C142.836 212.616 143.628 212.676 143.652 212.856Z" fill="#263238"/>
<path d="M137.844 178.548C136.081 178.487 134.325 178.816 132.703 179.511C131.081 180.205 129.632 181.249 128.46 182.568C126.132 185.262 124.948 188.758 125.16 192.312C125.136 193.647 125.559 194.952 126.36 196.02C127.56 197.4 129.588 197.676 131.424 197.856C133.289 198.202 135.209 198.103 137.028 197.568C138.804 196.884 140.28 195.048 139.884 193.2C139.008 194.4 139.74 196.176 140.988 196.932C142.309 197.58 143.784 197.846 145.248 197.7H151.536C152.254 197.771 152.975 197.616 153.6 197.256C153.936 196.915 154.2 196.509 154.377 196.064C154.555 195.619 154.641 195.143 154.632 194.664C154.968 191.316 155.28 187.752 153.744 184.764C152.218 182.117 149.729 180.161 146.796 179.304C143.928 178.356 140.796 178.788 137.808 178.596" fill="#263238"/>
<path d="M120.108 234.108C122.4 235.308 126.744 230.58 128.16 228.408C129.421 226.12 129.845 223.463 129.36 220.896C129.06 218.316 128.376 215.784 128.316 213.192C128.232 208.992 129.816 204.972 130.56 200.832C131.358 196.329 131.166 191.706 129.996 187.284C129.54 185.568 128.796 183.684 127.116 183.036C126.414 182.802 125.662 182.757 124.937 182.907C124.212 183.056 123.54 183.395 122.988 183.888C121.902 184.89 121.049 186.119 120.492 187.488L119.16 197.592L120.156 211.74L120.108 234.108Z" fill="#263238"/>
<path d="M180.516 287.388L186.636 308.268C186.636 308.268 154.608 319.92 137.268 319.704C121.008 319.512 116.352 317.664 110.64 304.536C104.928 291.408 98.3999 276.336 97.0679 267.66C97.0679 267.66 83.9999 231.396 118.992 234.972L123.792 262.572C123.792 262.572 127.668 275.376 127.944 276.12C130.56 283.032 133.944 293.16 137.22 294.384C140.496 295.608 180.516 287.388 180.516 287.388Z" fill="#6D36DA"/>
<path d="M180.516 287.388C180.245 287.49 179.963 287.563 179.676 287.604L177.276 288.12C175.14 288.564 172.044 289.224 168.204 290.112C164.364 291 159.804 292.092 154.572 293.052C148.891 294.179 143.108 294.714 137.316 294.648H137.112L137.04 294.456C136.38 292.74 135.684 290.928 135.024 289.08C130.416 276.132 126.912 264.228 124.08 255.708C122.676 251.436 121.5 247.992 120.66 245.628C120.264 244.428 119.94 243.576 119.7 242.904C119.57 242.59 119.469 242.265 119.4 241.932C119.4 241.932 119.556 242.244 119.82 242.856C120.084 243.468 120.444 244.368 120.888 245.544C121.8 247.884 123.036 251.304 124.488 255.564C127.44 264.06 131.016 275.964 135.612 288.864C136.272 290.712 136.956 292.464 137.616 294.228L137.328 294.036C143.08 294.108 148.825 293.601 154.476 292.524C159.66 291.588 164.256 290.52 168.12 289.716C171.984 288.912 175.08 288.288 177.24 287.904L179.712 287.508C179.978 287.454 180.246 287.414 180.516 287.388Z" fill="#263238"/>
<path d="M186.636 308.268C186.338 308.441 186.025 308.585 185.7 308.7C185.076 308.964 184.152 309.324 182.952 309.768C180.552 310.656 177.024 311.832 172.62 313.116C168.216 314.4 162.948 315.804 157.08 317.292C150.732 319.063 144.224 320.201 137.652 320.688C135.915 320.771 134.174 320.726 132.444 320.556C130.749 320.4 129.078 320.05 127.464 319.512C124.44 318.417 121.669 316.723 119.316 314.532C115.422 310.776 112.179 306.401 109.716 301.584C107.556 297.54 106.116 294.132 105.084 291.768C104.592 290.568 104.22 289.668 103.98 289.032C103.835 288.723 103.718 288.402 103.632 288.072C103.815 288.359 103.968 288.665 104.088 288.984C104.388 289.656 104.796 290.544 105.288 291.672C106.356 294 107.88 297.372 110.088 301.38C112.577 306.113 115.819 310.409 119.688 314.1C121.996 316.211 124.7 317.843 127.644 318.9C129.201 319.414 130.811 319.748 132.444 319.896C134.146 320.067 135.859 320.111 137.568 320.028C144.097 319.547 150.564 318.43 156.876 316.692C162.756 315.24 168.036 313.896 172.476 312.66C176.916 311.424 180.42 310.26 182.844 309.504L185.628 308.544C185.956 308.426 186.293 308.334 186.636 308.268Z" fill="#263238"/>
<path opacity="0.2" d="M109.44 301.368C109.44 301.368 115.44 324.408 131.04 323.94C146.64 323.472 161.292 316.8 161.292 316.8L160.596 316.08C160.596 316.08 134.196 321.768 126.864 318.192C112.932 311.424 109.44 301.368 109.44 301.368Z" fill="black"/>
<path d="M184.464 305.868H189.372C193.824 305.436 196.308 305.364 197.556 304.188C199.224 302.592 196.932 301.044 196.932 301.044C196.932 301.044 200.148 299.928 199.848 297.972C199.644 296.628 198.12 296.484 198.12 296.484C198.12 296.484 200.964 295.368 201.528 294.18C202.284 292.572 200.328 291.708 200.328 291.708C204.204 289.308 203.856 286.908 202.956 286.716C202.056 286.524 199.044 287.916 199.044 287.916C196.488 288.648 189.516 290.772 192.096 286.932C194.676 283.092 195.216 279.168 194.628 278.004C194.463 277.751 194.224 277.555 193.943 277.444C193.662 277.333 193.354 277.313 193.061 277.386C192.768 277.458 192.504 277.62 192.308 277.85C192.111 278.079 191.991 278.364 191.964 278.664C191.566 280.175 190.956 281.621 190.152 282.96C189.545 284.063 188.758 285.057 187.824 285.9C186.732 286.872 185.76 287.652 184.932 288.3L180.564 292.5L184.464 305.868Z" fill="#FFBE9D"/>
<defs>
<linearGradient id="paint0_linear" x1="280.268" y1="370.461" x2="280.268" y2="497.41" gradientUnits="userSpaceOnUse">
<stop offset="0.295701" stop-color="#FFD600"/>
<stop offset="0.690994" stop-color="white" stop-opacity="0"/>
</linearGradient>
<linearGradient id="paint1_linear" x1="255.129" y1="435.252" x2="255.129" y2="497.568" gradientUnits="userSpaceOnUse">
<stop offset="0.295701" stop-color="#FFD600"/>
<stop offset="0.690994" stop-color="white" stop-opacity="0"/>
</linearGradient>
</defs>
</svg>
