<svg width="43" height="32" viewBox="0 0 43 32" fill="none" xmlns="http://www.w3.org/2000/svg">
<path d="M21.5 8.38177C21.5 6.68922 20.6782 5.06599 19.2154 3.86918C17.7527 2.67236 15.7687 2 13.7 2H2V25.9316H15.65C17.2015 25.9316 18.6895 26.4359 19.7866 27.3335C20.8837 28.2311 21.5 28.7306 21.5 30M21.5 8.38177V30M21.5 8.38177C21.5 6.68922 22.3218 5.06599 23.7846 3.86918C25.2474 2.67236 27.2313 2 29.3 2H41V25.9316H27.35C25.7985 25.9316 24.3105 26.4359 23.2134 27.3335C22.1163 28.2311 21.5 28.7306 21.5 30" stroke="white" stroke-width="3.2" stroke-linecap="round" stroke-linejoin="round"/>
</svg>
