<svg width="46" height="35" viewBox="0 0 46 35" fill="none" xmlns="http://www.w3.org/2000/svg">
<path d="M43.5384 10.0045L25.9989 1.5589C24.4868 0.8137 21.9164 0.8137 20.4044 1.5589L2.46163 10.0045C1.2016 10.6007 1 11.4452 1 11.8924C1 12.3395 1.2016 13.1344 2.46163 13.7802L3.92325 14.4757V22.4245C3.01604 22.7723 2.36082 23.6665 2.36082 24.6601C2.36082 25.6537 3.01604 26.548 3.87285 26.8957L2.61283 34H6.86667L5.68728 26.8957C6.5945 26.548 7.19931 25.6537 7.19931 24.6601C7.19931 23.6169 6.5441 22.7723 5.63688 22.4245V15.3203L8.30813 16.612V26.9454C8.30813 27.0945 8.35853 27.2435 8.45933 27.3925C8.71134 27.6906 13.3986 34 22.9748 34C32.551 34 37.2383 27.6409 37.4399 27.3925C37.5407 27.2435 37.5911 27.0945 37.5911 26.9454V16.6616L43.5384 13.7802C44.7984 13.184 45 12.3395 45 11.8924C44.9496 11.4452 44.7984 10.6007 43.5384 10.0045ZM35.9782 26.697C35.1718 27.6906 30.8373 32.4599 22.9748 32.4599C15.1123 32.4599 10.7778 27.6906 9.97136 26.697V17.3075L20.4044 22.2258C21.1604 22.5736 22.1684 22.7723 23.1764 22.7723C24.2348 22.7723 25.2428 22.5736 25.9989 22.1761L35.9782 17.3572V26.697ZM42.8328 12.3892L36.7847 15.3203C36.5326 15.3203 36.331 15.4196 36.2302 15.6184L25.2932 20.8348C24.2348 21.3813 22.1684 21.3813 21.0596 20.8348L7.60252 14.4757L23.0756 12.6872C23.5292 12.6376 23.8316 12.2401 23.7812 11.8427C23.7308 11.3956 23.3276 11.0975 22.9244 11.1472L4.98167 13.2337L3.16724 12.3892C2.71363 12.1904 2.61283 11.942 2.61283 11.942C2.61283 11.8924 2.71363 11.6936 3.16724 11.4949L21.11 2.99962C21.6644 2.75122 22.4204 2.60218 23.1764 2.60218C23.9828 2.60218 24.7892 2.75122 25.2932 2.99962L42.8328 11.4452C43.2864 11.644 43.3872 11.8427 43.3872 11.942C43.3872 11.942 43.236 12.1904 42.8328 12.3892Z" fill="#6D36DA" stroke="#6D36DA" stroke-width="1.3"/>
</svg>
