<svg width="193" height="27" viewBox="0 0 193 27" fill="none" xmlns="http://www.w3.org/2000/svg">
<path d="M40.536 10.136V12.206H44.586V14.888H40.536V17.174H45.126V20H37.008V7.31H45.126V10.136H40.536ZM52.1973 20.126C50.7213 20.126 49.5093 19.778 48.5613 19.082C47.6133 18.374 47.1033 17.366 47.0313 16.058H50.7933C50.8293 16.502 50.9613 16.826 51.1893 17.03C51.4173 17.234 51.7113 17.336 52.0713 17.336C52.3953 17.336 52.6593 17.258 52.8633 17.102C53.0793 16.934 53.1873 16.706 53.1873 16.418C53.1873 16.046 53.0133 15.758 52.6653 15.554C52.3173 15.35 51.7533 15.122 50.9733 14.87C50.1453 14.594 49.4733 14.33 48.9573 14.078C48.4533 13.814 48.0093 13.436 47.6253 12.944C47.2533 12.44 47.0673 11.786 47.0673 10.982C47.0673 10.166 47.2713 9.47 47.6793 8.894C48.0873 8.306 48.6513 7.862 49.3713 7.562C50.0913 7.262 50.9073 7.112 51.8193 7.112C53.2953 7.112 54.4713 7.46 55.3473 8.156C56.2353 8.84 56.7093 9.806 56.7693 11.054H52.9353C52.9233 10.67 52.8033 10.382 52.5753 10.19C52.3593 9.998 52.0773 9.902 51.7293 9.902C51.4653 9.902 51.2493 9.98 51.0813 10.136C50.9133 10.292 50.8293 10.514 50.8293 10.802C50.8293 11.042 50.9193 11.252 51.0993 11.432C51.2913 11.6 51.5253 11.75 51.8013 11.882C52.0773 12.002 52.4853 12.158 53.0253 12.35C53.8293 12.626 54.4893 12.902 55.0053 13.178C55.5333 13.442 55.9833 13.82 56.3553 14.312C56.7393 14.792 56.9313 15.404 56.9313 16.148C56.9313 16.904 56.7393 17.582 56.3553 18.182C55.9833 18.782 55.4373 19.256 54.7173 19.604C54.0093 19.952 53.1693 20.126 52.1973 20.126ZM68.6694 7.31V10.118H65.2854V20H61.7574V10.118H58.4094V7.31H68.6694ZM73.9707 7.31V14.672C73.9707 15.356 74.1267 15.884 74.4387 16.256C74.7627 16.628 75.2487 16.814 75.8967 16.814C76.5447 16.814 77.0307 16.628 77.3547 16.256C77.6907 15.872 77.8587 15.344 77.8587 14.672V7.31H81.3867V14.672C81.3867 15.836 81.1407 16.832 80.6487 17.66C80.1567 18.476 79.4847 19.094 78.6327 19.514C77.7927 19.922 76.8567 20.126 75.8247 20.126C74.7927 20.126 73.8687 19.922 73.0527 19.514C72.2487 19.094 71.6127 18.476 71.1447 17.66C70.6887 16.844 70.4607 15.848 70.4607 14.672V7.31H73.9707ZM88.8912 7.31C90.2232 7.31 91.3872 7.58 92.3832 8.12C93.3912 8.648 94.1652 9.392 94.7052 10.352C95.2452 11.312 95.5152 12.41 95.5152 13.646C95.5152 14.87 95.2392 15.962 94.6872 16.922C94.1472 17.882 93.3732 18.638 92.3652 19.19C91.3692 19.73 90.2112 20 88.8912 20H83.8692V7.31H88.8912ZM88.6212 16.886C89.6532 16.886 90.4632 16.604 91.0512 16.04C91.6392 15.476 91.9332 14.678 91.9332 13.646C91.9332 12.602 91.6392 11.798 91.0512 11.234C90.4632 10.658 89.6532 10.37 88.6212 10.37H87.3972V16.886H88.6212ZM105.674 17.93H101.174L100.49 20H96.7815L101.408 7.31H105.476L110.084 20H106.358L105.674 17.93ZM104.792 15.23L103.424 11.126L102.074 15.23H104.792ZM123.527 20H119.999L115.301 12.908V20H111.773V7.31H115.301L119.999 14.492V7.31H123.527V20ZM135.635 7.31V10.118H132.251V20H128.723V10.118H125.375V7.31H135.635ZM141.008 7.31V20H137.48V7.31H141.008ZM155.311 20H151.783L147.085 12.908V20H143.557V7.31H147.085L151.783 14.492V7.31H155.311V20ZM162.883 7.31C164.215 7.31 165.379 7.58 166.375 8.12C167.383 8.648 168.157 9.392 168.697 10.352C169.237 11.312 169.507 12.41 169.507 13.646C169.507 14.87 169.231 15.962 168.679 16.922C168.139 17.882 167.365 18.638 166.357 19.19C165.361 19.73 164.203 20 162.883 20H157.861V7.31H162.883ZM162.613 16.886C163.645 16.886 164.455 16.604 165.043 16.04C165.631 15.476 165.925 14.678 165.925 13.646C165.925 12.602 165.631 11.798 165.043 11.234C164.455 10.658 163.645 10.37 162.613 10.37H161.389V16.886H162.613ZM175.165 10.136V12.206H179.215V14.888H175.165V17.174H179.755V20H171.637V7.31H179.755V10.136H175.165ZM188.465 20L185.945 15.32H185.567V20H182.039V7.31H187.601C188.621 7.31 189.485 7.49 190.193 7.85C190.901 8.198 191.435 8.684 191.795 9.308C192.155 9.92 192.335 10.61 192.335 11.378C192.335 12.242 192.095 13.004 191.615 13.664C191.147 14.312 190.457 14.774 189.545 15.05L192.407 20H188.465ZM185.567 12.908H187.313C187.793 12.908 188.153 12.794 188.393 12.566C188.633 12.338 188.753 12.008 188.753 11.576C188.753 11.168 188.627 10.85 188.375 10.622C188.135 10.382 187.781 10.262 187.313 10.262H185.567V12.908Z" fill="white"/>
<path d="M30.0034 7.33045L18.0447 1.39292C17.0137 0.869025 15.2612 0.869025 14.2302 1.39292L1.99656 7.33045C1.13746 7.74957 1 8.34332 1 8.65766C1 8.972 1.13746 9.53082 1.99656 9.98487L2.99313 10.4738V16.0621C2.37457 16.3066 1.92783 16.9353 1.92783 17.6338C1.92783 18.3323 2.37457 18.961 2.95876 19.2055L2.09966 24.2H5L4.19588 19.2055C4.81443 18.961 5.2268 18.3323 5.2268 17.6338C5.2268 16.9003 4.78007 16.3066 4.16151 16.0621V11.0676L5.98282 11.9757V19.2404C5.98282 19.3452 6.01718 19.45 6.08591 19.5548C6.25773 19.7643 9.45361 24.2 15.9828 24.2C22.512 24.2 25.7079 19.7294 25.8454 19.5548C25.9141 19.45 25.9485 19.3452 25.9485 19.2404V12.0106L30.0034 9.98487C30.8625 9.56575 31 8.972 31 8.65766C30.9656 8.34332 30.8625 7.74957 30.0034 7.33045ZM24.8488 19.0658C24.299 19.7643 21.3436 23.1173 15.9828 23.1173C10.622 23.1173 7.66667 19.7643 7.11684 19.0658V12.4647L14.2302 15.9224C14.7457 16.1669 15.433 16.3066 16.1203 16.3066C16.8419 16.3066 17.5292 16.1669 18.0447 15.8875L24.8488 12.4996V19.0658ZM29.5223 9.00693L25.3986 11.0676C25.2268 11.0676 25.0893 11.1374 25.0206 11.2772L17.5636 14.9444C16.8419 15.3286 15.433 15.3286 14.677 14.9444L5.50172 10.4738L16.0515 9.21649C16.3608 9.18156 16.567 8.90215 16.5326 8.62273C16.4983 8.30839 16.2234 8.09883 15.9485 8.13376L3.71478 9.60068L2.47766 9.00693C2.16839 8.86722 2.09966 8.69259 2.09966 8.69259C2.09966 8.65766 2.16839 8.51795 2.47766 8.37825L14.7113 2.4058C15.0893 2.23116 15.6048 2.12638 16.1203 2.12638C16.6701 2.12638 17.2199 2.23116 17.5636 2.4058L29.5223 8.34332C29.8316 8.48303 29.9003 8.62273 29.9003 8.69259C29.9003 8.69259 29.7973 8.86722 29.5223 9.00693Z" fill="white" stroke="white"/>
</svg>
