<svg width="301" height="42" viewBox="0 0 301 42" fill="none" xmlns="http://www.w3.org/2000/svg">
<path d="M63.056 15.656V18.876H69.356V23.048H63.056V26.604H70.196V31H57.568V11.26H70.196V15.656H63.056ZM81.1958 31.196C78.8998 31.196 77.0145 30.6547 75.5398 29.572C74.0652 28.4707 73.2718 26.9027 73.1598 24.868H79.0118C79.0678 25.5587 79.2732 26.0627 79.6278 26.38C79.9825 26.6973 80.4398 26.856 80.9998 26.856C81.5038 26.856 81.9145 26.7347 82.2318 26.492C82.5678 26.2307 82.7358 25.876 82.7358 25.428C82.7358 24.8493 82.4652 24.4013 81.9238 24.084C81.3825 23.7667 80.5052 23.412 79.2918 23.02C78.0038 22.5907 76.9585 22.18 76.1558 21.788C75.3718 21.3773 74.6812 20.7893 74.0838 20.024C73.5052 19.24 73.2158 18.2227 73.2158 16.972C73.2158 15.7027 73.5332 14.62 74.1678 13.724C74.8025 12.8093 75.6798 12.1187 76.7998 11.652C77.9198 11.1853 79.1892 10.952 80.6078 10.952C82.9038 10.952 84.7332 11.4933 86.0958 12.576C87.4772 13.64 88.2145 15.1427 88.3078 17.084H82.3438C82.3252 16.4867 82.1385 16.0387 81.7838 15.74C81.4478 15.4413 81.0092 15.292 80.4678 15.292C80.0572 15.292 79.7212 15.4133 79.4598 15.656C79.1985 15.8987 79.0678 16.244 79.0678 16.692C79.0678 17.0653 79.2078 17.392 79.4878 17.672C79.7865 17.9333 80.1505 18.1667 80.5798 18.372C81.0092 18.5587 81.6438 18.8013 82.4838 19.1C83.7345 19.5293 84.7612 19.9587 85.5638 20.388C86.3852 20.7987 87.0852 21.3867 87.6638 22.152C88.2612 22.8987 88.5598 23.8507 88.5598 25.008C88.5598 26.184 88.2612 27.2387 87.6638 28.172C87.0852 29.1053 86.2358 29.8427 85.1158 30.384C84.0145 30.9253 82.7078 31.196 81.1958 31.196ZM106.819 11.26V15.628H101.555V31H96.0671V15.628H90.8591V11.26H106.819ZM115.066 11.26V22.712C115.066 23.776 115.308 24.5973 115.794 25.176C116.298 25.7547 117.054 26.044 118.062 26.044C119.07 26.044 119.826 25.7547 120.33 25.176C120.852 24.5787 121.114 23.7573 121.114 22.712V11.26H126.602V22.712C126.602 24.5227 126.219 26.072 125.454 27.36C124.688 28.6293 123.643 29.5907 122.318 30.244C121.011 30.8787 119.555 31.196 117.95 31.196C116.344 31.196 114.907 30.8787 113.638 30.244C112.387 29.5907 111.398 28.6293 110.67 27.36C109.96 26.0907 109.606 24.5413 109.606 22.712V11.26H115.066ZM138.275 11.26C140.347 11.26 142.158 11.68 143.707 12.52C145.275 13.3413 146.479 14.4987 147.319 15.992C148.159 17.4853 148.579 19.1933 148.579 21.116C148.579 23.02 148.15 24.7187 147.291 26.212C146.451 27.7053 145.247 28.8813 143.679 29.74C142.13 30.58 140.328 31 138.275 31H130.463V11.26H138.275ZM137.855 26.156C139.46 26.156 140.72 25.7173 141.635 24.84C142.55 23.9627 143.007 22.7213 143.007 21.116C143.007 19.492 142.55 18.2413 141.635 17.364C140.72 16.468 139.46 16.02 137.855 16.02H135.951V26.156H137.855ZM164.381 27.78H157.381L156.317 31H150.549L157.745 11.26H164.073L171.241 31H165.445L164.381 27.78ZM163.009 23.58L160.881 17.196L158.781 23.58H163.009ZM192.154 31H186.666L179.358 19.968V31H173.87V11.26H179.358L186.666 22.432V11.26H192.154V31ZM210.988 11.26V15.628H205.724V31H200.236V15.628H195.028V11.26H210.988ZM219.346 11.26V31H213.858V11.26H219.346ZM241.596 31H236.108L228.8 19.968V31H223.312V11.26H228.8L236.108 22.432V11.26H241.596V31ZM253.374 11.26C255.446 11.26 257.256 11.68 258.806 12.52C260.374 13.3413 261.578 14.4987 262.418 15.992C263.258 17.4853 263.678 19.1933 263.678 21.116C263.678 23.02 263.248 24.7187 262.39 26.212C261.55 27.7053 260.346 28.8813 258.778 29.74C257.228 30.58 255.427 31 253.374 31H245.562V11.26H253.374ZM252.954 26.156C254.559 26.156 255.819 25.7173 256.734 24.84C257.648 23.9627 258.106 22.7213 258.106 21.116C258.106 19.492 257.648 18.2413 256.734 17.364C255.819 16.468 254.559 16.02 252.954 16.02H251.05V26.156H252.954ZM272.48 15.656V18.876H278.78V23.048H272.48V26.604H279.62V31H266.992V11.26H279.62V15.656H272.48ZM293.167 31L289.247 23.72H288.659V31H283.171V11.26H291.823C293.41 11.26 294.754 11.54 295.855 12.1C296.957 12.6413 297.787 13.3973 298.347 14.368C298.907 15.32 299.187 16.3933 299.187 17.588C299.187 18.932 298.814 20.1173 298.067 21.144C297.339 22.152 296.266 22.8707 294.847 23.3L299.299 31H293.167ZM288.659 19.968H291.375C292.122 19.968 292.682 19.7907 293.055 19.436C293.429 19.0813 293.615 18.568 293.615 17.896C293.615 17.2613 293.419 16.7667 293.027 16.412C292.654 16.0387 292.103 15.852 291.375 15.852H288.659V19.968Z" fill="#0FAD58"/>
<path d="M44.5052 12.4957L26.567 3.58939C25.0206 2.80354 22.3918 2.80354 20.8454 3.58939L2.49485 12.4957C1.20619 13.1244 1 14.015 1 14.4865C1 14.958 1.20619 15.7962 2.49485 16.4773L3.98969 17.2108V25.5932C3.06186 25.9599 2.39175 26.9029 2.39175 27.9507C2.39175 28.9985 3.06186 29.9415 3.93814 30.3082L2.64948 37.8H7L5.79381 30.3082C6.72165 29.9415 7.34021 28.9985 7.34021 27.9507C7.34021 26.8505 6.6701 25.9599 5.74227 25.5932V18.1014L8.47423 19.4635V30.3606C8.47423 30.5178 8.52577 30.675 8.62887 30.8321C8.8866 31.1465 13.6804 37.8 23.4742 37.8C33.268 37.8 38.0619 31.0941 38.268 30.8321C38.3711 30.675 38.4227 30.5178 38.4227 30.3606V19.5159L44.5052 16.4773C45.7938 15.8486 46 14.958 46 14.4865C45.9485 14.015 45.7938 13.1244 44.5052 12.4957ZM36.7732 30.0987C35.9485 31.1465 31.5155 36.1759 23.4742 36.1759C15.433 36.1759 11 31.1465 10.1753 30.0987V20.197L20.8454 25.3836C21.6186 25.7503 22.6495 25.9599 23.6804 25.9599C24.7629 25.9599 25.7938 25.7503 26.567 25.3312L36.7732 20.2494V30.0987ZM43.7835 15.0104L37.5979 18.1014C37.3402 18.1014 37.134 18.2062 37.0309 18.4157L25.8454 23.9167C24.7629 24.493 22.6495 24.493 21.5155 23.9167L7.75258 17.2108L23.5773 15.3247C24.0412 15.2723 24.3505 14.8532 24.299 14.4341C24.2474 13.9626 23.8351 13.6482 23.4227 13.7006L5.07216 15.901L3.2165 15.0104C2.75258 14.8008 2.64948 14.5389 2.64948 14.5389C2.64948 14.4865 2.75258 14.2769 3.2165 14.0674L21.567 5.10869C22.134 4.84674 22.9072 4.68957 23.6804 4.68957C24.5052 4.68957 25.3299 4.84674 25.8454 5.10869L43.7835 14.015C44.2474 14.2245 44.3505 14.4341 44.3505 14.5389C44.3505 14.5389 44.1959 14.8008 43.7835 15.0104Z" fill="#0FAD58" stroke="#0FAD58" stroke-width="2"/>
</svg>
