<svg width="290" height="42" viewBox="0 0 290 42" fill="none" xmlns="http://www.w3.org/2000/svg">
<path d="M52.056 15.656V18.876H58.356V23.048H52.056V26.604H59.196V31H46.568V11.26H59.196V15.656H52.056ZM70.1958 31.196C67.8998 31.196 66.0145 30.6547 64.5398 29.572C63.0652 28.4707 62.2718 26.9027 62.1598 24.868H68.0118C68.0678 25.5587 68.2732 26.0627 68.6278 26.38C68.9825 26.6973 69.4398 26.856 69.9998 26.856C70.5038 26.856 70.9145 26.7347 71.2318 26.492C71.5678 26.2307 71.7358 25.876 71.7358 25.428C71.7358 24.8493 71.4652 24.4013 70.9238 24.084C70.3825 23.7667 69.5052 23.412 68.2918 23.02C67.0038 22.5907 65.9585 22.18 65.1558 21.788C64.3718 21.3773 63.6812 20.7893 63.0838 20.024C62.5052 19.24 62.2158 18.2227 62.2158 16.972C62.2158 15.7027 62.5332 14.62 63.1678 13.724C63.8025 12.8093 64.6798 12.1187 65.7998 11.652C66.9198 11.1853 68.1892 10.952 69.6078 10.952C71.9038 10.952 73.7332 11.4933 75.0958 12.576C76.4772 13.64 77.2145 15.1427 77.3078 17.084H71.3438C71.3252 16.4867 71.1385 16.0387 70.7838 15.74C70.4478 15.4413 70.0092 15.292 69.4678 15.292C69.0572 15.292 68.7212 15.4133 68.4598 15.656C68.1985 15.8987 68.0678 16.244 68.0678 16.692C68.0678 17.0653 68.2078 17.392 68.4878 17.672C68.7865 17.9333 69.1505 18.1667 69.5798 18.372C70.0092 18.5587 70.6438 18.8013 71.4838 19.1C72.7345 19.5293 73.7612 19.9587 74.5638 20.388C75.3852 20.7987 76.0852 21.3867 76.6638 22.152C77.2612 22.8987 77.5598 23.8507 77.5598 25.008C77.5598 26.184 77.2612 27.2387 76.6638 28.172C76.0852 29.1053 75.2358 29.8427 74.1158 30.384C73.0145 30.9253 71.7078 31.196 70.1958 31.196ZM95.8191 11.26V15.628H90.5551V31H85.0671V15.628H79.8591V11.26H95.8191ZM104.066 11.26V22.712C104.066 23.776 104.308 24.5973 104.794 25.176C105.298 25.7547 106.054 26.044 107.062 26.044C108.07 26.044 108.826 25.7547 109.33 25.176C109.852 24.5787 110.114 23.7573 110.114 22.712V11.26H115.602V22.712C115.602 24.5227 115.219 26.072 114.454 27.36C113.688 28.6293 112.643 29.5907 111.318 30.244C110.011 30.8787 108.555 31.196 106.95 31.196C105.344 31.196 103.907 30.8787 102.638 30.244C101.387 29.5907 100.398 28.6293 99.6696 27.36C98.9602 26.0907 98.6056 24.5413 98.6056 22.712V11.26H104.066ZM127.275 11.26C129.347 11.26 131.158 11.68 132.707 12.52C134.275 13.3413 135.479 14.4987 136.319 15.992C137.159 17.4853 137.579 19.1933 137.579 21.116C137.579 23.02 137.15 24.7187 136.291 26.212C135.451 27.7053 134.247 28.8813 132.679 29.74C131.13 30.58 129.328 31 127.275 31H119.463V11.26H127.275ZM126.855 26.156C128.46 26.156 129.72 25.7173 130.635 24.84C131.55 23.9627 132.007 22.7213 132.007 21.116C132.007 19.492 131.55 18.2413 130.635 17.364C129.72 16.468 128.46 16.02 126.855 16.02H124.951V26.156H126.855ZM153.381 27.78H146.381L145.317 31H139.549L146.745 11.26H153.073L160.241 31H154.445L153.381 27.78ZM152.009 23.58L149.881 17.196L147.781 23.58H152.009ZM181.154 31H175.666L168.358 19.968V31H162.87V11.26H168.358L175.666 22.432V11.26H181.154V31ZM199.988 11.26V15.628H194.724V31H189.236V15.628H184.028V11.26H199.988ZM208.346 11.26V31H202.858V11.26H208.346ZM230.596 31H225.108L217.8 19.968V31H212.312V11.26H217.8L225.108 22.432V11.26H230.596V31ZM242.374 11.26C244.446 11.26 246.256 11.68 247.806 12.52C249.374 13.3413 250.578 14.4987 251.418 15.992C252.258 17.4853 252.678 19.1933 252.678 21.116C252.678 23.02 252.248 24.7187 251.39 26.212C250.55 27.7053 249.346 28.8813 247.778 29.74C246.228 30.58 244.427 31 242.374 31H234.562V11.26H242.374ZM241.954 26.156C243.559 26.156 244.819 25.7173 245.734 24.84C246.648 23.9627 247.106 22.7213 247.106 21.116C247.106 19.492 246.648 18.2413 245.734 17.364C244.819 16.468 243.559 16.02 241.954 16.02H240.05V26.156H241.954ZM261.48 15.656V18.876H267.78V23.048H261.48V26.604H268.62V31H255.992V11.26H268.62V15.656H261.48ZM282.167 31L278.247 23.72H277.659V31H272.171V11.26H280.823C282.41 11.26 283.754 11.54 284.855 12.1C285.957 12.6413 286.787 13.3973 287.347 14.368C287.907 15.32 288.187 16.3933 288.187 17.588C288.187 18.932 287.814 20.1173 287.067 21.144C286.339 22.152 285.266 22.8707 283.847 23.3L288.299 31H282.167ZM277.659 19.968H280.375C281.122 19.968 281.682 19.7907 282.055 19.436C282.429 19.0813 282.615 18.568 282.615 17.896C282.615 17.2613 282.419 16.7667 282.027 16.412C281.654 16.0387 281.103 15.852 280.375 15.852H277.659V19.968Z" fill="#0FAD58"/>
<path d="M17.5 6.9939L0 16.3254L17.5 25.657L31.8182 18.0207V28.7675H35V16.3254L17.5 6.9939ZM6.36364 22.8264V29.0474L17.5 34.9885L28.6364 29.0474V22.8264L17.5 28.7675L6.36364 22.8264Z" fill="#0FAD58"/>
</svg>
