<svg width="38" height="36" viewBox="0 0 38 36" fill="none" xmlns="http://www.w3.org/2000/svg">
<path d="M31.7499 1H10.75C7.85496 1 5.49999 3.22414 5.49999 5.95835V18.7083C5.49999 21.4425 7.85496 23.6667 10.75 23.6667H23.9395L31.219 30.5432C31.363 30.6778 31.555 30.75 31.75 30.75C31.846 30.75 31.9435 30.7316 32.0365 30.6962C32.317 30.5871 32.5 30.3278 32.5 30.0417V23.6171C35.041 23.2714 37 21.2017 37 18.7083V5.95835C36.9999 3.22414 34.645 1 31.7499 1ZM35.5 18.7083C35.5 20.6619 33.817 22.25 31.75 22.25C31.336 22.25 31 22.5673 31 22.9583V28.3317L24.781 22.4568C24.64 22.3251 24.4495 22.25 24.25 22.25H10.75C8.68303 22.25 7.00004 20.6619 7.00004 18.7083V5.95835C7.00004 4.00475 8.68303 2.41671 10.75 2.41671H31.75C33.817 2.41671 35.5 4.00481 35.5 5.95835V18.7083Z" fill="#6D36DA"/>
<path d="M24.508 26.4999H13.75C13.5505 26.4999 13.3599 26.5751 13.219 26.7082L6.99997 32.5817V27.2083C6.99997 26.8173 6.66394 26.4999 6.24994 26.4999C4.18297 26.4999 2.49997 24.9118 2.49997 22.9583V10.2083C2.49997 9.20247 2.95447 8.23918 3.74949 7.57047C4.05852 7.30837 4.08397 6.86072 3.80799 6.57033C3.53047 6.27847 3.05952 6.25297 2.74902 6.51368C1.63752 7.45287 1 8.80012 1 10.2083V22.9583C1 25.4517 2.95897 27.5214 5.49999 27.8671V34.2916C5.49999 34.5778 5.68301 34.837 5.96349 34.9461C6.05651 34.9815 6.15397 35 6.25001 35C6.44499 35 6.63701 34.9278 6.77954 34.7931L14.0605 27.9167H24.508C24.922 27.9167 25.258 27.5993 25.258 27.2083C25.258 26.8173 24.922 26.4999 24.508 26.4999Z" fill="#6D36DA"/>
<path d="M31.7499 1H10.75C7.85496 1 5.49999 3.22414 5.49999 5.95835V18.7083C5.49999 21.4425 7.85496 23.6667 10.75 23.6667H23.9395L31.219 30.5432C31.363 30.6778 31.555 30.75 31.75 30.75C31.846 30.75 31.9435 30.7316 32.0365 30.6962C32.317 30.5871 32.5 30.3278 32.5 30.0417V23.6171C35.041 23.2714 37 21.2017 37 18.7083V5.95835C36.9999 3.22414 34.645 1 31.7499 1ZM35.5 18.7083C35.5 20.6619 33.817 22.25 31.75 22.25C31.336 22.25 31 22.5673 31 22.9583V28.3317L24.781 22.4568C24.64 22.3251 24.4495 22.25 24.25 22.25H10.75C8.68303 22.25 7.00004 20.6619 7.00004 18.7083V5.95835C7.00004 4.00475 8.68303 2.41671 10.75 2.41671H31.75C33.817 2.41671 35.5 4.00481 35.5 5.95835V18.7083Z" stroke="#6D36DA"/>
<path d="M24.508 26.4999H13.75C13.5505 26.4999 13.3599 26.5751 13.219 26.7082L6.99997 32.5817V27.2083C6.99997 26.8173 6.66394 26.4999 6.24994 26.4999C4.18297 26.4999 2.49997 24.9118 2.49997 22.9583V10.2083C2.49997 9.20247 2.95447 8.23918 3.74949 7.57047C4.05852 7.30837 4.08397 6.86072 3.80799 6.57033C3.53047 6.27847 3.05952 6.25297 2.74902 6.51368C1.63752 7.45287 1 8.80012 1 10.2083V22.9583C1 25.4517 2.95897 27.5214 5.49999 27.8671V34.2916C5.49999 34.5778 5.68301 34.837 5.96349 34.9461C6.05651 34.9815 6.15397 35 6.25001 35C6.44499 35 6.63701 34.9278 6.77954 34.7931L14.0605 27.9167H24.508C24.922 27.9167 25.258 27.5993 25.258 27.2083C25.258 26.8173 24.922 26.4999 24.508 26.4999Z" stroke="#6D36DA"/>
</svg>
